<?xml version="1.0" encoding="UTF-8" standalone="no"?><svg xmlns="http://www.w3.org/2000/svg" xmlns:xlink="http://www.w3.org/1999/xlink" clip-rule="evenodd" stroke-miterlimit="10" viewBox="0 0 1024 768"><desc>SVG generated by Keynote</desc><defs></defs><g transform="matrix(1.00, 0.00, -0.00, -1.00, 0.0, 768.0)"><path d="M 0.0 768.0 L 1024.0 768.0 L 1024.0 0.0 L 0.0 0.0 Z M 0.0 768.0 " fill="#000000"></path><text xml:space="preserve" font-family="TimesNewRomanPSMT,Times New Roman" font-size="80.0" fill="#7ADA45" transform="matrix(1.00, 0.00, -0.00, -1.00, 142.0, 636.7)">L</text><text xml:space="preserve" font-family="TimesNewRomanPSMT,Times New Roman" font-size="80.0" fill="#7ADA45" transform="matrix(1.00, 0.00, -0.00, -1.00, 190.9, 636.7)">i</text><text xml:space="preserve" font-family="TimesNewRomanPSMT,Times New Roman" font-size="80.0" fill="#7ADA45" transform="matrix(1.00, 0.00, -0.00, -1.00, 213.1, 636.7)">n</text><text xml:space="preserve" font-family="TimesNewRomanPSMT,Times New Roman" font-size="80.0" fill="#7ADA45" transform="matrix(1.00, 0.00, -0.00, -1.00, 253.1, 636.7)">k</text><text xml:space="preserve" font-family="TimesNewRomanPSMT,Times New Roman" font-size="80.0" fill="#7ADA45" transform="matrix(1.00, 0.00, -0.00, -1.00, 293.1, 636.7)">e</text><text xml:space="preserve" font-family="TimesNewRomanPSMT,Times New Roman" font-size="80.0" fill="#7ADA45" transform="matrix(1.00, 0.00, -0.00, -1.00, 328.6, 636.7)">d</text><text xml:space="preserve" font-family="TimesNewRomanPSMT,Times New Roman" font-size="80.0" fill="#7ADA45" transform="matrix(1.00, 0.00, -0.00, -1.00, 368.6, 636.7)"> </text><text xml:space="preserve" font-family="TimesNewRomanPSMT,Times New Roman" font-size="80.0" fill="#7ADA45" transform="matrix(1.00, 0.00, -0.00, -1.00, 388.6, 636.7)">L</text><text xml:space="preserve" font-family="TimesNewRomanPSMT,Times New Roman" font-size="80.0" fill="#7ADA45" transform="matrix(1.00, 0.00, -0.00, -1.00, 437.4, 636.7)">i</text><text xml:space="preserve" font-family="TimesNewRomanPSMT,Times New Roman" font-size="80.0" fill="#7ADA45" transform="matrix(1.00, 0.00, -0.00, -1.00, 459.7, 636.7)">s</text><text xml:space="preserve" font-family="TimesNewRomanPSMT,Times New Roman" font-size="80.0" fill="#7ADA45" transform="matrix(1.00, 0.00, -0.00, -1.00, 490.8, 636.7)">t</text><text xml:space="preserve" font-family="TimesNewRomanPSMT,Times New Roman" font-size="80.0" fill="#7ADA45" transform="matrix(1.00, 0.00, -0.00, -1.00, 513.0, 636.7)"> </text><text xml:space="preserve" font-family="TimesNewRomanPSMT,Times New Roman" font-size="80.0" fill="#7ADA45" transform="matrix(1.00, 0.00, -0.00, -1.00, 533.0, 636.7)">S</text><text xml:space="preserve" font-family="TimesNewRomanPSMT,Times New Roman" font-size="80.0" fill="#7ADA45" transform="matrix(1.00, 0.00, -0.00, -1.00, 577.5, 636.7)">o</text><text xml:space="preserve" font-family="TimesNewRomanPSMT,Times New Roman" font-size="80.0" fill="#7ADA45" transform="matrix(1.00, 0.00, -0.00, -1.00, 617.5, 636.7)">r</text><text xml:space="preserve" font-family="TimesNewRomanPSMT,Times New Roman" font-size="80.0" fill="#7ADA45" transform="matrix(1.00, 0.00, -0.00, -1.00, 644.2, 636.7)">t</text><text xml:space="preserve" font-family="TimesNewRomanPSMT,Times New Roman" font-size="80.0" fill="#7ADA45" transform="matrix(1.00, 0.00, -0.00, -1.00, 666.4, 636.7)">i</text><text xml:space="preserve" font-family="TimesNewRomanPSMT,Times New Roman" font-size="80.0" fill="#7ADA45" transform="matrix(1.00, 0.00, -0.00, -1.00, 688.6, 636.7)">n</text><text xml:space="preserve" font-family="TimesNewRomanPSMT,Times New Roman" font-size="80.0" fill="#7ADA45" transform="matrix(1.00, 0.00, -0.00, -1.00, 728.6, 636.7)">g</text><text xml:space="preserve" font-family="TimesNewRomanPSMT,Times New Roman" font-size="80.0" fill="#7ADA45" transform="matrix(1.00, 0.00, -0.00, -1.00, 768.6, 636.7)"> </text><text xml:space="preserve" font-family="TimesNewRomanPSMT,Times New Roman" font-size="80.0" fill="#7ADA45" transform="matrix(1.00, 0.00, -0.00, -1.00, 788.6, 636.7)">(</text><text xml:space="preserve" font-family="TimesNewRomanPSMT,Times New Roman" font-size="80.0" fill="#7ADA45" transform="matrix(1.00, 0.00, -0.00, -1.00, 815.2, 636.7)">2</text><text xml:space="preserve" font-family="TimesNewRomanPSMT,Times New Roman" font-size="80.0" fill="#7ADA45" transform="matrix(1.00, 0.00, -0.00, -1.00, 855.2, 636.7)">)</text><g><clipPath id="clip0x7fafe67335c0"><path d="M 166.0 157.0 L 859.0 157.0 L 859.0 493.0 L 166.0 493.0 Z M 166.0 157.0 "></path></clipPath><g clip-path="url(#clip0x7fafe67335c0)"><path d="M 166.0 493.0 L 859.0 493.0 L 859.0 157.0 L 166.0 157.0 Z M 166.0 493.0 " fill="#FFFFFF" fill-opacity="0.00"></path><path d="M 515.9 491.6 L 572.6 491.6 L 572.6 459.1 L 515.9 459.1 Z M 515.9 491.6 " fill="#FEFB00"></path><path d="M 0.0 0.0 L 533400.0 0.0 L 533400.0 304800.0 L 0.0 304800.0 Z M 0.0 0.0 " fill="none" stroke="#CACACA" stroke-width="25400.00" stroke-linejoin="round" transform="matrix(0.00, 0.00, 0.00, -0.00, 515.9, 491.6)"></path><text xml:space="preserve" font-family="ArialMT,Arial" font-size="14.0" fill="#000000" transform="matrix(1.35, 0.00, -0.00, -1.35, 525.7, 467.8)">0</text><text xml:space="preserve" font-family="ArialMT,Arial" font-size="14.0" fill="#000000" transform="matrix(1.35, 0.00, -0.00, -1.35, 536.5, 467.8)">.</text><text xml:space="preserve" font-family="ArialMT,Arial" font-size="14.0" fill="#000000" transform="matrix(1.35, 0.00, -0.00, -1.35, 541.9, 467.8)">8</text><text xml:space="preserve" font-family="ArialMT,Arial" font-size="14.0" fill="#000000" transform="matrix(1.35, 0.00, -0.00, -1.35, 552.7, 467.8)">7</text><path d="M 515.9 459.1 L 572.6 459.1 L 572.6 426.6 L 515.9 426.6 Z M 515.9 459.1 " fill="#CCF2FF"></path><path d="M 0.0 0.0 L 533400.0 0.0 L 533400.0 304800.0 L 0.0 304800.0 Z M 0.0 0.0 " fill="none" stroke="#CACACA" stroke-width="25400.00" stroke-linejoin="round" transform="matrix(0.00, 0.00, 0.00, -0.00, 515.9, 459.1)"></path><text xml:space="preserve" font-family="ArialMT,Arial" font-size="18.0" fill="#000000" transform="matrix(1.35, 0.00, -0.00, -1.35, 537.8, 433.1)">0</text><path d="M 0.0 0.0 L 533400.0 0.0 L 533400.0 609600.0 L 0.0 609600.0 Z M 0.0 0.0 " fill="none" stroke="#0086A9" stroke-width="25400.00" stroke-linejoin="round" transform="matrix(0.00, 0.00, 0.00, -0.00, 515.9, 491.6)"></path><path d="M 661.8 491.6 L 718.5 491.6 L 718.5 459.1 L 661.8 459.1 Z M 661.8 491.6 " fill="#FFC900"></path><path d="M 0.0 0.0 L 533400.0 0.0 L 533400.0 304800.0 L 0.0 304800.0 Z M 0.0 0.0 " fill="none" stroke="#CACACA" stroke-width="25400.00" stroke-linejoin="round" transform="matrix(0.00, 0.00, 0.00, -0.00, 661.8, 491.6)"></path><text xml:space="preserve" font-family="ArialMT,Arial" font-size="14.0" fill="#000000" transform="matrix(1.35, 0.00, -0.00, -1.35, 671.6, 467.8)">0</text><text xml:space="preserve" font-family="ArialMT,Arial" font-size="14.0" fill="#000000" transform="matrix(1.35, 0.00, -0.00, -1.35, 682.4, 467.8)">.</text><text xml:space="preserve" font-family="ArialMT,Arial" font-size="14.0" fill="#000000" transform="matrix(1.35, 0.00, -0.00, -1.35, 687.8, 467.8)">9</text><text xml:space="preserve" font-family="ArialMT,Arial" font-size="14.0" fill="#000000" transform="matrix(1.35, 0.00, -0.00, -1.35, 698.6, 467.8)">8</text><path d="M 661.8 459.1 L 718.5 459.1 L 718.5 426.6 L 661.8 426.6 Z M 661.8 459.1 " fill="#CCF2FF"></path><path d="M 0.0 0.0 L 533400.0 0.0 L 533400.0 304800.0 L 0.0 304800.0 Z M 0.0 0.0 " fill="none" stroke="#CACACA" stroke-width="25400.00" stroke-linejoin="round" transform="matrix(0.00, 0.00, 0.00, -0.00, 661.8, 459.1)"></path><text xml:space="preserve" font-family="ArialMT,Arial" font-size="18.0" fill="#000000" transform="matrix(1.35, 0.00, -0.00, -1.35, 679.7, 433.1)">&amp;</text><text xml:space="preserve" font-family="ArialMT,Arial" font-size="18.0" fill="#000000" transform="matrix(1.35, 0.00, -0.00, -1.35, 687.8, 433.1)">1</text><path d="M 0.0 0.0 L 533400.0 0.0 L 533400.0 609600.0 L 0.0 609600.0 Z M 0.0 0.0 " fill="none" stroke="#0086A9" stroke-width="25400.00" stroke-linejoin="round" transform="matrix(0.00, 0.00, 0.00, -0.00, 661.8, 491.6)"></path><path d="M 370.0 491.6 L 426.7 491.6 L 426.7 459.1 L 370.0 459.1 Z M 370.0 491.6 " fill="#00A9D5"></path><path d="M 0.0 0.0 L 533400.0 0.0 L 533400.0 304800.0 L 0.0 304800.0 Z M 0.0 0.0 " fill="none" stroke="#CACACA" stroke-width="25400.00" stroke-linejoin="round" transform="matrix(0.00, 0.00, 0.00, -0.00, 370.0, 491.6)"></path><text xml:space="preserve" font-family="ArialMT,Arial" font-size="14.0" fill="#000000" transform="matrix(1.35, 0.00, -0.00, -1.35, 379.8, 467.8)">0</text><text xml:space="preserve" font-family="ArialMT,Arial" font-size="14.0" fill="#000000" transform="matrix(1.35, 0.00, -0.00, -1.35, 390.6, 467.8)">.</text><text xml:space="preserve" font-family="ArialMT,Arial" font-size="14.0" fill="#000000" transform="matrix(1.35, 0.00, -0.00, -1.35, 396.0, 467.8)">9</text><text xml:space="preserve" font-family="ArialMT,Arial" font-size="14.0" fill="#000000" transform="matrix(1.35, 0.00, -0.00, -1.35, 406.8, 467.8)">5</text><path d="M 370.0 459.1 L 426.7 459.1 L 426.7 426.6 L 370.0 426.6 Z M 370.0 459.1 " fill="#CCF2FF"></path><path d="M 0.0 0.0 L 533400.0 0.0 L 533400.0 304800.0 L 0.0 304800.0 Z M 0.0 0.0 " fill="none" stroke="#CACACA" stroke-width="25400.00" stroke-linejoin="round" transform="matrix(0.00, 0.00, 0.00, -0.00, 370.0, 459.1)"></path><text xml:space="preserve" font-family="ArialMT,Arial" font-size="18.0" fill="#000000" transform="matrix(1.35, 0.00, -0.00, -1.35, 385.2, 433.1)">1</text><text xml:space="preserve" font-family="ArialMT,Arial" font-size="18.0" fill="#000000" transform="matrix(1.35, 0.00, -0.00, -1.35, 398.7, 433.1)">2</text><path d="M 0.0 0.0 L 533400.0 0.0 L 533400.0 609600.0 L 0.0 609600.0 Z M 0.0 0.0 " fill="none" stroke="#0086A9" stroke-width="25400.00" stroke-linejoin="round" transform="matrix(0.00, 0.00, 0.00, -0.00, 370.0, 491.6)"></path><path d="M 224.1 491.6 L 280.8 491.6 L 280.8 459.1 L 224.1 459.1 Z M 224.1 491.6 " fill="#A1D562"></path><path d="M 0.0 0.0 L 533400.0 0.0 L 533400.0 304800.0 L 0.0 304800.0 Z M 0.0 0.0 " fill="none" stroke="#CACACA" stroke-width="25400.00" stroke-linejoin="round" transform="matrix(0.00, 0.00, 0.00, -0.00, 224.1, 491.6)"></path><text xml:space="preserve" font-family="ArialMT,Arial" font-size="14.0" fill="#000000" transform="matrix(1.35, 0.00, -0.00, -1.35, 233.9, 467.8)">0</text><text xml:space="preserve" font-family="ArialMT,Arial" font-size="14.0" fill="#000000" transform="matrix(1.35, 0.00, -0.00, -1.35, 244.7, 467.8)">.</text><text xml:space="preserve" font-family="ArialMT,Arial" font-size="14.0" fill="#000000" transform="matrix(1.35, 0.00, -0.00, -1.35, 250.1, 467.8)">9</text><text xml:space="preserve" font-family="ArialMT,Arial" font-size="14.0" fill="#000000" transform="matrix(1.35, 0.00, -0.00, -1.35, 260.9, 467.8)">3</text><path d="M 224.1 459.1 L 280.8 459.1 L 280.8 426.6 L 224.1 426.6 Z M 224.1 459.1 " fill="#CCF2FF"></path><path d="M 0.0 0.0 L 533400.0 0.0 L 533400.0 304800.0 L 0.0 304800.0 Z M 0.0 0.0 " fill="none" stroke="#CACACA" stroke-width="25400.00" stroke-linejoin="round" transform="matrix(0.00, 0.00, 0.00, -0.00, 224.1, 459.1)"></path><text xml:space="preserve" font-family="ArialMT,Arial" font-size="18.0" fill="#000000" transform="matrix(1.35, 0.00, -0.00, -1.35, 239.3, 433.1)">3</text><text xml:space="preserve" font-family="ArialMT,Arial" font-size="18.0" fill="#000000" transform="matrix(1.35, 0.00, -0.00, -1.35, 252.8, 433.1)">4</text><path d="M 0.0 0.0 L 533400.0 0.0 L 533400.0 609600.0 L 0.0 609600.0 Z M 0.0 0.0 " fill="none" stroke="#0086A9" stroke-width="25400.00" stroke-linejoin="round" transform="matrix(0.00, 0.00, 0.00, -0.00, 224.1, 491.6)"></path><path d="M 0.0 0.0 L 775187.9 1468.1 " fill="none" stroke="#000000" stroke-width="63500.00" stroke-linejoin="round" transform="matrix(0.00, 0.00, 0.00, -0.00, 281.5, 458.5)"></path><path d="M 370.7 458.3 L 345.4 443.5 C 343.8 442.6 341.7 443.2 340.7 444.8 C 339.8 446.4 340.4 448.5 342.0 449.4 L 357.3 458.3 L 342.0 467.3 C 340.4 468.2 339.9 470.3 340.8 471.9 C 341.7 473.5 343.8 474.1 345.4 473.1 Z M 370.7 458.3 " fill="#000000"></path><path d="M 0.0 0.0 L 775187.9 1468.1 " fill="none" stroke="#000000" stroke-width="63500.00" stroke-linejoin="round" transform="matrix(0.00, 0.00, 0.00, -0.00, 427.4, 458.5)"></path><path d="M 516.6 458.3 L 491.3 443.5 C 489.6 442.6 487.6 443.2 486.6 444.8 C 485.7 446.4 486.3 448.5 487.9 449.4 L 503.1 458.3 L 487.9 467.3 C 486.3 468.2 485.8 470.3 486.7 471.9 C 487.6 473.5 489.7 474.1 491.3 473.1 Z M 516.6 458.3 " fill="#000000"></path><path d="M 0.0 0.0 L 775187.9 1468.1 " fill="none" stroke="#000000" stroke-width="63500.00" stroke-linejoin="round" transform="matrix(0.00, 0.00, 0.00, -0.00, 573.3, 458.5)"></path><path d="M 662.4 458.3 L 637.2 443.5 C 635.5 442.6 633.5 443.2 632.5 444.8 C 631.6 446.4 632.2 448.5 633.8 449.4 L 649.0 458.3 L 633.8 467.3 C 632.2 468.2 631.6 470.3 632.6 471.9 C 633.5 473.5 635.6 474.1 637.2 473.1 Z M 662.4 458.3 " fill="#000000"></path><path d="M 224.1 491.6 L 280.8 491.6 L 280.8 459.1 L 224.1 459.1 Z M 224.1 491.6 " fill="#A1D562"></path><path d="M 0.0 0.0 L 533400.0 0.0 L 533400.0 304800.0 L 0.0 304800.0 Z M 0.0 0.0 " fill="none" stroke="#CACACA" stroke-width="25400.00" stroke-linejoin="round" transform="matrix(0.00, 0.00, 0.00, -0.00, 224.1, 491.6)"></path><text xml:space="preserve" font-family="ArialMT,Arial" font-size="14.0" fill="#000000" transform="matrix(1.35, 0.00, -0.00, -1.35, 233.9, 467.8)">0</text><text xml:space="preserve" font-family="ArialMT,Arial" font-size="14.0" fill="#000000" transform="matrix(1.35, 0.00, -0.00, -1.35, 244.7, 467.8)">.</text><text xml:space="preserve" font-family="ArialMT,Arial" font-size="14.0" fill="#000000" transform="matrix(1.35, 0.00, -0.00, -1.35, 250.1, 467.8)">9</text><text xml:space="preserve" font-family="ArialMT,Arial" font-size="14.0" fill="#000000" transform="matrix(1.35, 0.00, -0.00, -1.35, 260.9, 467.8)">3</text><path d="M 370.0 491.6 L 426.7 491.6 L 426.7 459.1 L 370.0 459.1 Z M 370.0 491.6 " fill="#00A9D5"></path><path d="M 0.0 0.0 L 533400.0 0.0 L 533400.0 304800.0 L 0.0 304800.0 Z M 0.0 0.0 " fill="none" stroke="#CACACA" stroke-width="25400.00" stroke-linejoin="round" transform="matrix(0.00, 0.00, 0.00, -0.00, 370.0, 491.6)"></path><text xml:space="preserve" font-family="ArialMT,Arial" font-size="14.0" fill="#000000" transform="matrix(1.35, 0.00, -0.00, -1.35, 379.8, 467.8)">0</text><text xml:space="preserve" font-family="ArialMT,Arial" font-size="14.0" fill="#000000" transform="matrix(1.35, 0.00, -0.00, -1.35, 390.6, 467.8)">.</text><text xml:space="preserve" font-family="ArialMT,Arial" font-size="14.0" fill="#000000" transform="matrix(1.35, 0.00, -0.00, -1.35, 396.0, 467.8)">9</text><text xml:space="preserve" font-family="ArialMT,Arial" font-size="14.0" fill="#000000" transform="matrix(1.35, 0.00, -0.00, -1.35, 406.8, 467.8)">5</text><path d="M 515.9 491.6 L 572.6 491.6 L 572.6 459.1 L 515.9 459.1 Z M 515.9 491.6 " fill="#FEFB00"></path><path d="M 0.0 0.0 L 533400.0 0.0 L 533400.0 304800.0 L 0.0 304800.0 Z M 0.0 0.0 " fill="none" stroke="#CACACA" stroke-width="25400.00" stroke-linejoin="round" transform="matrix(0.00, 0.00, 0.00, -0.00, 515.9, 491.6)"></path><text xml:space="preserve" font-family="ArialMT,Arial" font-size="14.0" fill="#000000" transform="matrix(1.35, 0.00, -0.00, -1.35, 525.7, 467.8)">0</text><text xml:space="preserve" font-family="ArialMT,Arial" font-size="14.0" fill="#000000" transform="matrix(1.35, 0.00, -0.00, -1.35, 536.5, 467.8)">.</text><text xml:space="preserve" font-family="ArialMT,Arial" font-size="14.0" fill="#000000" transform="matrix(1.35, 0.00, -0.00, -1.35, 541.9, 467.8)">8</text><text xml:space="preserve" font-family="ArialMT,Arial" font-size="14.0" fill="#000000" transform="matrix(1.35, 0.00, -0.00, -1.35, 552.7, 467.8)">7</text><path d="M 661.8 491.6 L 718.5 491.6 L 718.5 459.1 L 661.8 459.1 Z M 661.8 491.6 " fill="#FFC900"></path><path d="M 0.0 0.0 L 533400.0 0.0 L 533400.0 304800.0 L 0.0 304800.0 Z M 0.0 0.0 " fill="none" stroke="#CACACA" stroke-width="25400.00" stroke-linejoin="round" transform="matrix(0.00, 0.00, 0.00, -0.00, 661.8, 491.6)"></path><text xml:space="preserve" font-family="ArialMT,Arial" font-size="14.0" fill="#000000" transform="matrix(1.35, 0.00, -0.00, -1.35, 671.6, 467.8)">0</text><text xml:space="preserve" font-family="ArialMT,Arial" font-size="14.0" fill="#000000" transform="matrix(1.35, 0.00, -0.00, -1.35, 682.4, 467.8)">.</text><text xml:space="preserve" font-family="ArialMT,Arial" font-size="14.0" fill="#000000" transform="matrix(1.35, 0.00, -0.00, -1.35, 687.8, 467.8)">9</text><text xml:space="preserve" font-family="ArialMT,Arial" font-size="14.0" fill="#000000" transform="matrix(1.35, 0.00, -0.00, -1.35, 698.6, 467.8)">8</text><path d="M 0.0 0.0 L 533400.0 0.0 L 533400.0 609600.0 L 0.0 609600.0 Z M 0.0 0.0 " fill="none" stroke="#0086A9" stroke-width="25400.00" stroke-linejoin="round" transform="matrix(0.00, 0.00, 0.00, -0.00, 224.1, 491.6)"></path><path d="M 0.0 0.0 L 533400.0 0.0 L 533400.0 609600.0 L 0.0 609600.0 Z M 0.0 0.0 " fill="none" stroke="#0086A9" stroke-width="25400.00" stroke-linejoin="round" transform="matrix(0.00, 0.00, 0.00, -0.00, 370.0, 491.6)"></path><path d="M 0.0 0.0 L 533400.0 0.0 L 533400.0 609600.0 L 0.0 609600.0 Z M 0.0 0.0 " fill="none" stroke="#0086A9" stroke-width="25400.00" stroke-linejoin="round" transform="matrix(0.00, 0.00, 0.00, -0.00, 515.9, 491.6)"></path><path d="M 0.0 0.0 L 533400.0 0.0 L 533400.0 609600.0 L 0.0 609600.0 Z M 0.0 0.0 " fill="none" stroke="#0086A9" stroke-width="25400.00" stroke-linejoin="round" transform="matrix(0.00, 0.00, 0.00, -0.00, 661.8, 491.6)"></path><path d="M 418.6 402.2 L 475.4 402.2 L 475.4 369.7 L 418.6 369.7 Z M 418.6 402.2 " fill="#E3E3E8"></path><path d="M 0.0 0.0 L 533400.0 0.0 L 533400.0 304800.0 L 0.0 304800.0 Z M 0.0 0.0 " fill="none" stroke="#CACACA" stroke-width="25400.00" stroke-linejoin="round" transform="matrix(0.00, 0.00, 0.00, -0.00, 418.6, 402.2)"></path><path d="M 0.0 0.0 L 533400.0 0.0 L 533400.0 304800.0 L 0.0 304800.0 Z M 0.0 0.0 " fill="none" stroke="#CACACA" stroke-width="25400.00" stroke-linejoin="round" transform="matrix(0.00, 0.00, 0.00, -0.00, 418.6, 288.4)"></path><text xml:space="preserve" font-family="Verdana-BoldItalic,Verdana" font-style="italic" font-weight="bold" font-size="11.0" fill="#000000" transform="matrix(1.35, 0.00, -0.00, -1.35, 486.5, 390.6)">B</text><text xml:space="preserve" font-family="Verdana-BoldItalic,Verdana" font-style="italic" font-weight="bold" font-size="11.0" fill="#000000" transform="matrix(1.35, 0.00, -0.00, -1.35, 497.3, 390.6)">a</text><text xml:space="preserve" font-family="Verdana-BoldItalic,Verdana" font-style="italic" font-weight="bold" font-size="11.0" fill="#000000" transform="matrix(1.35, 0.00, -0.00, -1.35, 506.8, 390.6)">c</text><text xml:space="preserve" font-family="Verdana-BoldItalic,Verdana" font-style="italic" font-weight="bold" font-size="11.0" fill="#000000" transform="matrix(1.35, 0.00, -0.00, -1.35, 514.9, 390.6)">k</text><text xml:space="preserve" font-family="Verdana-BoldItalic,Verdana" font-style="italic" font-weight="bold" font-size="11.0" fill="#000000" transform="matrix(1.35, 0.00, -0.00, -1.35, 524.3, 390.6)">g</text><text xml:space="preserve" font-family="Verdana-BoldItalic,Verdana" font-style="italic" font-weight="bold" font-size="11.0" fill="#000000" transform="matrix(1.35, 0.00, -0.00, -1.35, 535.1, 390.6)">r</text><text xml:space="preserve" font-family="Verdana-BoldItalic,Verdana" font-style="italic" font-weight="bold" font-size="11.0" fill="#000000" transform="matrix(1.35, 0.00, -0.00, -1.35, 541.9, 390.6)">o</text><text xml:space="preserve" font-family="Verdana-BoldItalic,Verdana" font-style="italic" font-weight="bold" font-size="11.0" fill="#000000" transform="matrix(1.35, 0.00, -0.00, -1.35, 552.7, 390.6)">u</text><text xml:space="preserve" font-family="Verdana-BoldItalic,Verdana" font-style="italic" font-weight="bold" font-size="11.0" fill="#000000" transform="matrix(1.35, 0.00, -0.00, -1.35, 563.5, 390.6)">n</text><text xml:space="preserve" font-family="Verdana-BoldItalic,Verdana" font-style="italic" font-weight="bold" font-size="11.0" fill="#000000" transform="matrix(1.35, 0.00, -0.00, -1.35, 574.3, 390.6)">d</text><text xml:space="preserve" font-family="Verdana-BoldItalic,Verdana" font-style="italic" font-weight="bold" font-size="11.0" fill="#000000" transform="matrix(1.35, 0.00, -0.00, -1.35, 514.9, 373.0)">c</text><text xml:space="preserve" font-family="Verdana-BoldItalic,Verdana" font-style="italic" font-weight="bold" font-size="11.0" fill="#000000" transform="matrix(1.35, 0.00, -0.00, -1.35, 523.0, 373.0)">o</text><text xml:space="preserve" font-family="Verdana-BoldItalic,Verdana" font-style="italic" font-weight="bold" font-size="11.0" fill="#000000" transform="matrix(1.35, 0.00, -0.00, -1.35, 533.8, 373.0)">l</text><text xml:space="preserve" font-family="Verdana-BoldItalic,Verdana" font-style="italic" font-weight="bold" font-size="11.0" fill="#000000" transform="matrix(1.35, 0.00, -0.00, -1.35, 539.2, 373.0)">o</text><text xml:space="preserve" font-family="Verdana-BoldItalic,Verdana" font-style="italic" font-weight="bold" font-size="11.0" fill="#000000" transform="matrix(1.35, 0.00, -0.00, -1.35, 550.0, 373.0)">r</text><path d="M 167.4 353.5 L 224.1 353.5 L 224.1 320.9 L 167.4 320.9 Z M 167.4 353.5 " fill="#FFC900" fill-opacity="0.50"></path><path d="M 0.0 0.0 L 533400.0 0.0 L 533400.0 304800.0 L 0.0 304800.0 Z M 0.0 0.0 " fill="none" stroke="#CACACA" stroke-width="25400.00" stroke-linejoin="round" transform="matrix(0.00, 0.00, 0.00, -0.00, 167.4, 353.5)"></path><path d="M 167.4 320.9 L 224.1 320.9 L 224.1 288.4 L 167.4 288.4 Z M 167.4 320.9 " fill="#A1D562" fill-opacity="0.50"></path><path d="M 0.0 0.0 L 533400.0 0.0 L 533400.0 304800.0 L 0.0 304800.0 Z M 0.0 0.0 " fill="none" stroke="#CACACA" stroke-width="25400.00" stroke-linejoin="round" transform="matrix(0.00, 0.00, 0.00, -0.00, 167.4, 320.9)"></path><path d="M 167.4 288.4 L 224.1 288.4 L 224.1 255.9 L 167.4 255.9 Z M 167.4 288.4 " fill="#00A9D5" fill-opacity="0.50"></path><path d="M 0.0 0.0 L 533400.0 0.0 L 533400.0 304800.0 L 0.0 304800.0 Z M 0.0 0.0 " fill="none" stroke="#CACACA" stroke-width="25400.00" stroke-linejoin="round" transform="matrix(0.00, 0.00, 0.00, -0.00, 167.4, 288.4)"></path><path d="M 167.4 255.9 L 224.1 255.9 L 224.1 223.4 L 167.4 223.4 Z M 167.4 255.9 " fill="#FEFB00" fill-opacity="0.50"></path><path d="M 0.0 0.0 L 533400.0 0.0 L 533400.0 304800.0 L 0.0 304800.0 Z M 0.0 0.0 " fill="none" stroke="#CACACA" stroke-width="25400.00" stroke-linejoin="round" transform="matrix(0.00, 0.00, 0.00, -0.00, 167.4, 255.9)"></path><text xml:space="preserve" font-family="Verdana-Bold,Verdana" font-weight="bold" font-size="11.0" fill="#000000" transform="matrix(1.35, 0.00, -0.00, -1.35, 412.2, 236.1)">P</text><text xml:space="preserve" font-family="Verdana-Bold,Verdana" font-weight="bold" font-size="11.0" fill="#000000" transform="matrix(1.35, 0.00, -0.00, -1.35, 423.0, 236.1)">S</text><text xml:space="preserve" font-family="Verdana-Bold,Verdana" font-weight="bold" font-size="11.0" fill="#000000" transform="matrix(1.35, 0.00, -0.00, -1.35, 433.8, 236.1)"> </text><text xml:space="preserve" font-family="Verdana-Bold,Verdana" font-weight="bold" font-size="11.0" fill="#000000" transform="matrix(1.35, 0.00, -0.00, -1.35, 439.2, 236.1)">c</text><text xml:space="preserve" font-family="Verdana-Bold,Verdana" font-weight="bold" font-size="11.0" fill="#000000" transform="matrix(1.35, 0.00, -0.00, -1.35, 447.3, 236.1)">o</text><text xml:space="preserve" font-family="Verdana-Bold,Verdana" font-weight="bold" font-size="11.0" fill="#000000" transform="matrix(1.35, 0.00, -0.00, -1.35, 458.1, 236.1)">l</text><text xml:space="preserve" font-family="Verdana-Bold,Verdana" font-weight="bold" font-size="11.0" fill="#000000" transform="matrix(1.35, 0.00, -0.00, -1.35, 463.5, 236.1)">o</text><text xml:space="preserve" font-family="Verdana-Bold,Verdana" font-weight="bold" font-size="11.0" fill="#000000" transform="matrix(1.35, 0.00, -0.00, -1.35, 474.3, 236.1)">r</text><path d="M 661.8 353.5 L 694.2 353.5 L 694.2 320.9 L 661.8 320.9 Z M 661.8 353.5 " fill="#CCF2FF"></path><path d="M 0.0 0.0 L 304800.0 0.0 L 304800.0 304800.0 L 0.0 304800.0 Z M 0.0 0.0 " fill="none" stroke="#009BC5" stroke-width="25400.00" stroke-linejoin="round" transform="matrix(0.00, 0.00, 0.00, -0.00, 661.8, 353.5)"></path><path d="M 694.2 353.5 L 726.6 353.5 L 726.6 320.9 L 694.2 320.9 Z M 694.2 353.5 " fill="#CCF2FF"></path><path d="M 0.0 0.0 L 304800.0 0.0 L 304800.0 304800.0 L 0.0 304800.0 Z M 0.0 0.0 " fill="none" stroke="#009BC5" stroke-width="25400.00" stroke-linejoin="round" transform="matrix(0.00, 0.00, 0.00, -0.00, 694.2, 353.5)"></path><path d="M 726.6 353.5 L 759.0 353.5 L 759.0 320.9 L 726.6 320.9 Z M 726.6 353.5 " fill="#CCF2FF"></path><path d="M 0.0 0.0 L 304800.0 0.0 L 304800.0 304800.0 L 0.0 304800.0 Z M 0.0 0.0 " fill="none" stroke="#009BC5" stroke-width="25400.00" stroke-linejoin="round" transform="matrix(0.00, 0.00, 0.00, -0.00, 726.6, 353.5)"></path><path d="M 759.0 353.5 L 791.5 353.5 L 791.5 320.9 L 759.0 320.9 Z M 759.0 353.5 " fill="#CCF2FF"></path><path d="M 0.0 0.0 L 304800.0 0.0 L 304800.0 304800.0 L 0.0 304800.0 Z M 0.0 0.0 " fill="none" stroke="#009BC5" stroke-width="25400.00" stroke-linejoin="round" transform="matrix(0.00, 0.00, 0.00, -0.00, 759.0, 353.5)"></path><path d="M 791.5 353.5 L 823.9 353.5 L 823.9 320.9 L 791.5 320.9 Z M 791.5 353.5 " fill="#CCF2FF"></path><path d="M 0.0 0.0 L 304800.0 0.0 L 304800.0 304800.0 L 0.0 304800.0 Z M 0.0 0.0 " fill="none" stroke="#009BC5" stroke-width="25400.00" stroke-linejoin="round" transform="matrix(0.00, 0.00, 0.00, -0.00, 791.5, 353.5)"></path><path d="M 823.9 353.5 L 856.3 353.5 L 856.3 320.9 L 823.9 320.9 Z M 823.9 353.5 " fill="#CCF2FF"></path><path d="M 0.0 0.0 L 304800.0 0.0 L 304800.0 304800.0 L 0.0 304800.0 Z M 0.0 0.0 " fill="none" stroke="#009BC5" stroke-width="25400.00" stroke-linejoin="round" transform="matrix(0.00, 0.00, 0.00, -0.00, 823.9, 353.5)"></path><path d="M 661.8 320.9 L 694.2 320.9 L 694.2 288.4 L 661.8 288.4 Z M 661.8 320.9 " fill="#CCF2FF"></path><path d="M 0.0 0.0 L 304800.0 0.0 L 304800.0 304800.0 L 0.0 304800.0 Z M 0.0 0.0 " fill="none" stroke="#009BC5" stroke-width="25400.00" stroke-linejoin="round" transform="matrix(0.00, 0.00, 0.00, -0.00, 661.8, 320.9)"></path><path d="M 694.2 320.9 L 726.6 320.9 L 726.6 288.4 L 694.2 288.4 Z M 694.2 320.9 " fill="#CCF2FF"></path><path d="M 0.0 0.0 L 304800.0 0.0 L 304800.0 304800.0 L 0.0 304800.0 Z M 0.0 0.0 " fill="none" stroke="#009BC5" stroke-width="25400.00" stroke-linejoin="round" transform="matrix(0.00, 0.00, 0.00, -0.00, 694.2, 320.9)"></path><path d="M 726.6 320.9 L 759.0 320.9 L 759.0 288.4 L 726.6 288.4 Z M 726.6 320.9 " fill="#CCF2FF"></path><path d="M 0.0 0.0 L 304800.0 0.0 L 304800.0 304800.0 L 0.0 304800.0 Z M 0.0 0.0 " fill="none" stroke="#009BC5" stroke-width="25400.00" stroke-linejoin="round" transform="matrix(0.00, 0.00, 0.00, -0.00, 726.6, 320.9)"></path><path d="M 759.0 320.9 L 791.5 320.9 L 791.5 288.4 L 759.0 288.4 Z M 759.0 320.9 " fill="#CCF2FF"></path><path d="M 0.0 0.0 L 304800.0 0.0 L 304800.0 304800.0 L 0.0 304800.0 Z M 0.0 0.0 " fill="none" stroke="#009BC5" stroke-width="25400.00" stroke-linejoin="round" transform="matrix(0.00, 0.00, 0.00, -0.00, 759.0, 320.9)"></path><path d="M 791.5 320.9 L 823.9 320.9 L 823.9 288.4 L 791.5 288.4 Z M 791.5 320.9 " fill="#CCF2FF"></path><path d="M 0.0 0.0 L 304800.0 0.0 L 304800.0 304800.0 L 0.0 304800.0 Z M 0.0 0.0 " fill="none" stroke="#009BC5" stroke-width="25400.00" stroke-linejoin="round" transform="matrix(0.00, 0.00, 0.00, -0.00, 791.5, 320.9)"></path><path d="M 823.9 320.9 L 856.3 320.9 L 856.3 288.4 L 823.9 288.4 Z M 823.9 320.9 " fill="#CCF2FF"></path><path d="M 0.0 0.0 L 304800.0 0.0 L 304800.0 304800.0 L 0.0 304800.0 Z M 0.0 0.0 " fill="none" stroke="#009BC5" stroke-width="25400.00" stroke-linejoin="round" transform="matrix(0.00, 0.00, 0.00, -0.00, 823.9, 320.9)"></path><path d="M 661.8 288.4 L 694.2 288.4 L 694.2 255.9 L 661.8 255.9 Z M 661.8 288.4 " fill="#CCF2FF"></path><path d="M 0.0 0.0 L 304800.0 0.0 L 304800.0 304800.0 L 0.0 304800.0 Z M 0.0 0.0 " fill="none" stroke="#009BC5" stroke-width="25400.00" stroke-linejoin="round" transform="matrix(0.00, 0.00, 0.00, -0.00, 661.8, 288.4)"></path><path d="M 694.2 288.4 L 726.6 288.4 L 726.6 255.9 L 694.2 255.9 Z M 694.2 288.4 " fill="#CCF2FF"></path><path d="M 0.0 0.0 L 304800.0 0.0 L 304800.0 304800.0 L 0.0 304800.0 Z M 0.0 0.0 " fill="none" stroke="#009BC5" stroke-width="25400.00" stroke-linejoin="round" transform="matrix(0.00, 0.00, 0.00, -0.00, 694.2, 288.4)"></path><path d="M 726.6 288.4 L 759.0 288.4 L 759.0 255.9 L 726.6 255.9 Z M 726.6 288.4 " fill="#CCF2FF"></path><path d="M 0.0 0.0 L 304800.0 0.0 L 304800.0 304800.0 L 0.0 304800.0 Z M 0.0 0.0 " fill="none" stroke="#009BC5" stroke-width="25400.00" stroke-linejoin="round" transform="matrix(0.00, 0.00, 0.00, -0.00, 726.6, 288.4)"></path><path d="M 759.0 288.4 L 791.5 288.4 L 791.5 255.9 L 759.0 255.9 Z M 759.0 288.4 " fill="#CCF2FF"></path><path d="M 0.0 0.0 L 304800.0 0.0 L 304800.0 304800.0 L 0.0 304800.0 Z M 0.0 0.0 " fill="none" stroke="#009BC5" stroke-width="25400.00" stroke-linejoin="round" transform="matrix(0.00, 0.00, 0.00, -0.00, 759.0, 288.4)"></path><path d="M 791.5 288.4 L 823.9 288.4 L 823.9 255.9 L 791.5 255.9 Z M 791.5 288.4 " fill="#CCF2FF"></path><path d="M 0.0 0.0 L 304800.0 0.0 L 304800.0 304800.0 L 0.0 304800.0 Z M 0.0 0.0 " fill="none" stroke="#009BC5" stroke-width="25400.00" stroke-linejoin="round" transform="matrix(0.00, 0.00, 0.00, -0.00, 791.5, 288.4)"></path><path d="M 823.9 288.4 L 856.3 288.4 L 856.3 255.9 L 823.9 255.9 Z M 823.9 288.4 " fill="#CCF2FF"></path><path d="M 0.0 0.0 L 304800.0 0.0 L 304800.0 304800.0 L 0.0 304800.0 Z M 0.0 0.0 " fill="none" stroke="#009BC5" stroke-width="25400.00" stroke-linejoin="round" transform="matrix(0.00, 0.00, 0.00, -0.00, 823.9, 288.4)"></path><path d="M 661.8 255.9 L 694.2 255.9 L 694.2 223.4 L 661.8 223.4 Z M 661.8 255.9 " fill="#CCF2FF"></path><path d="M 0.0 0.0 L 304800.0 0.0 L 304800.0 304800.0 L 0.0 304800.0 Z M 0.0 0.0 " fill="none" stroke="#009BC5" stroke-width="25400.00" stroke-linejoin="round" transform="matrix(0.00, 0.00, 0.00, -0.00, 661.8, 255.9)"></path><path d="M 694.2 255.9 L 726.6 255.9 L 726.6 223.4 L 694.2 223.4 Z M 694.2 255.9 " fill="#CCF2FF"></path><path d="M 0.0 0.0 L 304800.0 0.0 L 304800.0 304800.0 L 0.0 304800.0 Z M 0.0 0.0 " fill="none" stroke="#009BC5" stroke-width="25400.00" stroke-linejoin="round" transform="matrix(0.00, 0.00, 0.00, -0.00, 694.2, 255.9)"></path><path d="M 726.6 255.9 L 759.0 255.9 L 759.0 223.4 L 726.6 223.4 Z M 726.6 255.9 " fill="#CCF2FF"></path><path d="M 0.0 0.0 L 304800.0 0.0 L 304800.0 304800.0 L 0.0 304800.0 Z M 0.0 0.0 " fill="none" stroke="#009BC5" stroke-width="25400.00" stroke-linejoin="round" transform="matrix(0.00, 0.00, 0.00, -0.00, 726.6, 255.9)"></path><path d="M 759.0 255.9 L 791.5 255.9 L 791.5 223.4 L 759.0 223.4 Z M 759.0 255.9 " fill="#CCF2FF"></path><path d="M 0.0 0.0 L 304800.0 0.0 L 304800.0 304800.0 L 0.0 304800.0 Z M 0.0 0.0 " fill="none" stroke="#009BC5" stroke-width="25400.00" stroke-linejoin="round" transform="matrix(0.00, 0.00, 0.00, -0.00, 759.0, 255.9)"></path><path d="M 791.5 255.9 L 823.9 255.9 L 823.9 223.4 L 791.5 223.4 Z M 791.5 255.9 " fill="#CCF2FF"></path><path d="M 0.0 0.0 L 304800.0 0.0 L 304800.0 304800.0 L 0.0 304800.0 Z M 0.0 0.0 " fill="none" stroke="#009BC5" stroke-width="25400.00" stroke-linejoin="round" transform="matrix(0.00, 0.00, 0.00, -0.00, 791.5, 255.9)"></path><path d="M 823.9 255.9 L 856.3 255.9 L 856.3 223.4 L 823.9 223.4 Z M 823.9 255.9 " fill="#CCF2FF"></path><path d="M 0.0 0.0 L 304800.0 0.0 L 304800.0 304800.0 L 0.0 304800.0 Z M 0.0 0.0 " fill="none" stroke="#009BC5" stroke-width="25400.00" stroke-linejoin="round" transform="matrix(0.00, 0.00, 0.00, -0.00, 823.9, 255.9)"></path><path d="M 661.8 223.4 L 694.2 223.4 L 694.2 190.9 L 661.8 190.9 Z M 661.8 223.4 " fill="#CCF2FF"></path><path d="M 0.0 0.0 L 304800.0 0.0 L 304800.0 304800.0 L 0.0 304800.0 Z M 0.0 0.0 " fill="none" stroke="#009BC5" stroke-width="25400.00" stroke-linejoin="round" transform="matrix(0.00, 0.00, 0.00, -0.00, 661.8, 223.4)"></path><path d="M 694.2 223.4 L 726.6 223.4 L 726.6 190.9 L 694.2 190.9 Z M 694.2 223.4 " fill="#CCF2FF"></path><path d="M 0.0 0.0 L 304800.0 0.0 L 304800.0 304800.0 L 0.0 304800.0 Z M 0.0 0.0 " fill="none" stroke="#009BC5" stroke-width="25400.00" stroke-linejoin="round" transform="matrix(0.00, 0.00, 0.00, -0.00, 694.2, 223.4)"></path><path d="M 726.6 223.4 L 759.0 223.4 L 759.0 190.9 L 726.6 190.9 Z M 726.6 223.4 " fill="#CCF2FF"></path><path d="M 0.0 0.0 L 304800.0 0.0 L 304800.0 304800.0 L 0.0 304800.0 Z M 0.0 0.0 " fill="none" stroke="#009BC5" stroke-width="25400.00" stroke-linejoin="round" transform="matrix(0.00, 0.00, 0.00, -0.00, 726.6, 223.4)"></path><path d="M 759.0 223.4 L 791.5 223.4 L 791.5 190.9 L 759.0 190.9 Z M 759.0 223.4 " fill="#CCF2FF"></path><path d="M 0.0 0.0 L 304800.0 0.0 L 304800.0 304800.0 L 0.0 304800.0 Z M 0.0 0.0 " fill="none" stroke="#009BC5" stroke-width="25400.00" stroke-linejoin="round" transform="matrix(0.00, 0.00, 0.00, -0.00, 759.0, 223.4)"></path><path d="M 791.5 223.4 L 823.9 223.4 L 823.9 190.9 L 791.5 190.9 Z M 791.5 223.4 " fill="#CCF2FF"></path><path d="M 0.0 0.0 L 304800.0 0.0 L 304800.0 304800.0 L 0.0 304800.0 Z M 0.0 0.0 " fill="none" stroke="#009BC5" stroke-width="25400.00" stroke-linejoin="round" transform="matrix(0.00, 0.00, 0.00, -0.00, 791.5, 223.4)"></path><path d="M 823.9 223.4 L 856.3 223.4 L 856.3 190.9 L 823.9 190.9 Z M 823.9 223.4 " fill="#CCF2FF"></path><path d="M 0.0 0.0 L 304800.0 0.0 L 304800.0 304800.0 L 0.0 304800.0 Z M 0.0 0.0 " fill="none" stroke="#009BC5" stroke-width="25400.00" stroke-linejoin="round" transform="matrix(0.00, 0.00, 0.00, -0.00, 823.9, 223.4)"></path><path d="M 661.8 190.9 L 694.2 190.9 L 694.2 158.4 L 661.8 158.4 Z M 661.8 190.9 " fill="#CCF2FF"></path><path d="M 0.0 0.0 L 304800.0 0.0 L 304800.0 304800.0 L 0.0 304800.0 Z M 0.0 0.0 " fill="none" stroke="#009BC5" stroke-width="25400.00" stroke-linejoin="round" transform="matrix(0.00, 0.00, 0.00, -0.00, 661.8, 190.9)"></path><path d="M 694.2 190.9 L 726.6 190.9 L 726.6 158.4 L 694.2 158.4 Z M 694.2 190.9 " fill="#CCF2FF"></path><path d="M 0.0 0.0 L 304800.0 0.0 L 304800.0 304800.0 L 0.0 304800.0 Z M 0.0 0.0 " fill="none" stroke="#009BC5" stroke-width="25400.00" stroke-linejoin="round" transform="matrix(0.00, 0.00, 0.00, -0.00, 694.2, 190.9)"></path><path d="M 726.6 190.9 L 759.0 190.9 L 759.0 158.4 L 726.6 158.4 Z M 726.6 190.9 " fill="#CCF2FF"></path><path d="M 0.0 0.0 L 304800.0 0.0 L 304800.0 304800.0 L 0.0 304800.0 Z M 0.0 0.0 " fill="none" stroke="#009BC5" stroke-width="25400.00" stroke-linejoin="round" transform="matrix(0.00, 0.00, 0.00, -0.00, 726.6, 190.9)"></path><path d="M 759.0 190.9 L 791.5 190.9 L 791.5 158.4 L 759.0 158.4 Z M 759.0 190.9 " fill="#CCF2FF"></path><path d="M 0.0 0.0 L 304800.0 0.0 L 304800.0 304800.0 L 0.0 304800.0 Z M 0.0 0.0 " fill="none" stroke="#009BC5" stroke-width="25400.00" stroke-linejoin="round" transform="matrix(0.00, 0.00, 0.00, -0.00, 759.0, 190.9)"></path><path d="M 791.5 190.9 L 823.9 190.9 L 823.9 158.4 L 791.5 158.4 Z M 791.5 190.9 " fill="#CCF2FF"></path><path d="M 0.0 0.0 L 304800.0 0.0 L 304800.0 304800.0 L 0.0 304800.0 Z M 0.0 0.0 " fill="none" stroke="#009BC5" stroke-width="25400.00" stroke-linejoin="round" transform="matrix(0.00, 0.00, 0.00, -0.00, 791.5, 190.9)"></path><path d="M 823.9 190.9 L 856.3 190.9 L 856.3 158.4 L 823.9 158.4 Z M 823.9 190.9 " fill="#CCF2FF"></path><path d="M 0.0 0.0 L 304800.0 0.0 L 304800.0 304800.0 L 0.0 304800.0 Z M 0.0 0.0 " fill="none" stroke="#009BC5" stroke-width="25400.00" stroke-linejoin="round" transform="matrix(0.00, 0.00, 0.00, -0.00, 823.9, 190.9)"></path><text xml:space="preserve" font-family="Verdana,Verdana" font-size="18.0" fill="#000000" transform="matrix(1.35, 0.00, -0.00, -1.35, 671.5, 363.6)">R</text><text xml:space="preserve" font-family="Verdana,Verdana" font-size="18.0" fill="#000000" transform="matrix(1.35, 0.00, -0.00, -1.35, 689.1, 363.6)">e</text><text xml:space="preserve" font-family="Verdana,Verdana" font-size="18.0" fill="#000000" transform="matrix(1.35, 0.00, -0.00, -1.35, 703.9, 363.6)">n</text><text xml:space="preserve" font-family="Verdana,Verdana" font-size="18.0" fill="#000000" transform="matrix(1.35, 0.00, -0.00, -1.35, 718.8, 363.6)">d</text><text xml:space="preserve" font-family="Verdana,Verdana" font-size="18.0" fill="#000000" transform="matrix(1.35, 0.00, -0.00, -1.35, 733.6, 363.6)">e</text><text xml:space="preserve" font-family="Verdana,Verdana" font-size="18.0" fill="#000000" transform="matrix(1.35, 0.00, -0.00, -1.35, 748.5, 363.6)">r</text><text xml:space="preserve" font-family="Verdana,Verdana" font-size="18.0" fill="#000000" transform="matrix(1.35, 0.00, -0.00, -1.35, 759.3, 363.6)"> </text><text xml:space="preserve" font-family="Verdana,Verdana" font-size="18.0" fill="#000000" transform="matrix(1.35, 0.00, -0.00, -1.35, 766.0, 363.6)">T</text><text xml:space="preserve" font-family="Verdana,Verdana" font-size="18.0" fill="#000000" transform="matrix(1.35, 0.00, -0.00, -1.35, 778.2, 363.6)">a</text><text xml:space="preserve" font-family="Verdana,Verdana" font-size="18.0" fill="#000000" transform="matrix(1.35, 0.00, -0.00, -1.35, 793.1, 363.6)">r</text><text xml:space="preserve" font-family="Verdana,Verdana" font-size="18.0" fill="#000000" transform="matrix(1.35, 0.00, -0.00, -1.35, 803.9, 363.6)">g</text><text xml:space="preserve" font-family="Verdana,Verdana" font-size="18.0" fill="#000000" transform="matrix(1.35, 0.00, -0.00, -1.35, 818.7, 363.6)">e</text><text xml:space="preserve" font-family="Verdana,Verdana" font-size="18.0" fill="#000000" transform="matrix(1.35, 0.00, -0.00, -1.35, 833.6, 363.6)">t</text><path d="M 418.6 288.4 L 475.4 288.4 L 475.4 255.9 L 418.6 255.9 Z M 418.6 288.4 " fill="#BBDC5B"></path><path d="M 0.0 0.0 L 533400.0 0.0 L 533400.0 304800.0 L 0.0 304800.0 Z M 0.0 0.0 " fill="none" stroke="#CACACA" stroke-width="25400.00" stroke-linejoin="round" transform="matrix(0.00, 0.00, 0.00, -0.00, 418.6, 288.4)"></path><path d="M 694.2 288.4 L 726.6 288.4 L 726.6 255.9 L 694.2 255.9 Z M 694.2 288.4 " fill="#BBDC5B"></path><path d="M 0.0 0.0 L 304800.0 0.0 L 304800.0 304800.0 L 0.0 304800.0 Z M 0.0 0.0 " fill="none" stroke="#009BC5" stroke-width="25400.00" stroke-linejoin="round" transform="matrix(0.00, 0.00, 0.00, -0.00, 694.2, 288.4)"></path></g></g><path d="M 0.4 -0.1 L 75.6 -0.1 L 76.4 -0.1 " fill="none" stroke="#2F8B16" stroke-width="2.00" transform="matrix(1.00, 0.00, 0.00, -1.00, 282.6, 459.9)"></path><path d="M 358.0 455.2 L 367.6 460.0 L 358.0 464.8 Z M 358.0 455.2 " fill="#2F8B16"></path><path d="M 0.4 -0.1 L 75.6 -0.1 L 76.4 -0.1 " fill="none" stroke="#2F8B16" stroke-width="2.00" transform="matrix(1.00, 0.00, 0.00, -1.00, 428.6, 459.9)"></path><path d="M 504.0 455.2 L 513.6 460.0 L 504.0 464.8 Z M 504.0 455.2 " fill="#2F8B16"></path><path d="M 0.4 -0.1 L 75.6 -0.1 L 76.4 -0.1 " fill="none" stroke="#2F8B16" stroke-width="2.00" transform="matrix(1.00, 0.00, 0.00, -1.00, 574.6, 459.9)"></path><path d="M 650.0 455.2 L 659.6 460.0 L 650.0 464.8 Z M 650.0 455.2 " fill="#2F8B16"></path><text xml:space="preserve" font-family="TimesNewRomanPSMT,Times New Roman" font-size="25.0" fill="#FEFFFF" transform="matrix(1.00, 0.00, -0.00, -1.00, 136.1, 377.9)">T</text><text xml:space="preserve" font-family="TimesNewRomanPSMT,Times New Roman" font-size="25.0" fill="#FEFFFF" transform="matrix(1.00, 0.00, -0.00, -1.00, 149.7, 377.9)">e</text><text xml:space="preserve" font-family="TimesNewRomanPSMT,Times New Roman" font-size="25.0" fill="#FEFFFF" transform="matrix(1.00, 0.00, -0.00, -1.00, 160.7, 377.9)">m</text><text xml:space="preserve" font-family="TimesNewRomanPSMT,Times New Roman" font-size="25.0" fill="#FEFFFF" transform="matrix(1.00, 0.00, -0.00, -1.00, 180.2, 377.9)">p</text><text xml:space="preserve" font-family="TimesNewRomanPSMT,Times New Roman" font-size="25.0" fill="#FEFFFF" transform="matrix(1.00, 0.00, -0.00, -1.00, 192.7, 377.9)"> </text><text xml:space="preserve" font-family="TimesNewRomanPSMT,Times New Roman" font-size="25.0" fill="#FEFFFF" transform="matrix(1.00, 0.00, -0.00, -1.00, 197.6, 377.9)">A</text><text xml:space="preserve" font-family="TimesNewRomanPSMT,Times New Roman" font-size="25.0" fill="#FEFFFF" transform="matrix(1.00, 0.00, -0.00, -1.00, 215.6, 377.9)">r</text><text xml:space="preserve" font-family="TimesNewRomanPSMT,Times New Roman" font-size="25.0" fill="#FEFFFF" transform="matrix(1.00, 0.00, -0.00, -1.00, 223.9, 377.9)">r</text><text xml:space="preserve" font-family="TimesNewRomanPSMT,Times New Roman" font-size="25.0" fill="#FEFFFF" transform="matrix(1.00, 0.00, -0.00, -1.00, 232.3, 377.9)">a</text><text xml:space="preserve" font-family="TimesNewRomanPSMT,Times New Roman" font-size="25.0" fill="#FEFFFF" transform="matrix(1.00, 0.00, -0.00, -1.00, 243.4, 377.9)">y</text><text xml:space="preserve" font-family="TimesNewRomanPSMT,Times New Roman" font-size="25.0" fill="#FEFFFF" transform="matrix(1.00, 0.00, -0.00, -1.00, 403.3, 224.9)">F</text><text xml:space="preserve" font-family="TimesNewRomanPSMT,Times New Roman" font-size="25.0" fill="#FEFFFF" transform="matrix(1.00, 0.00, -0.00, -1.00, 417.2, 224.9)">S</text><text xml:space="preserve" font-family="TimesNewRomanPSMT,Times New Roman" font-size="25.0" fill="#FEFFFF" transform="matrix(1.00, 0.00, -0.00, -1.00, 431.1, 224.9)"> </text><text xml:space="preserve" font-family="TimesNewRomanPSMT,Times New Roman" font-size="25.0" fill="#FEFFFF" transform="matrix(1.00, 0.00, -0.00, -1.00, 437.4, 224.9)">c</text><text xml:space="preserve" font-family="TimesNewRomanPSMT,Times New Roman" font-size="25.0" fill="#FEFFFF" transform="matrix(1.00, 0.00, -0.00, -1.00, 448.4, 224.9)">o</text><text xml:space="preserve" font-family="TimesNewRomanPSMT,Times New Roman" font-size="25.0" fill="#FEFFFF" transform="matrix(1.00, 0.00, -0.00, -1.00, 460.9, 224.9)">l</text><text xml:space="preserve" font-family="TimesNewRomanPSMT,Times New Roman" font-size="25.0" fill="#FEFFFF" transform="matrix(1.00, 0.00, -0.00, -1.00, 467.9, 224.9)">o</text><text xml:space="preserve" font-family="TimesNewRomanPSMT,Times New Roman" font-size="25.0" fill="#FEFFFF" transform="matrix(1.00, 0.00, -0.00, -1.00, 480.4, 224.9)">r</text><text xml:space="preserve" font-family="TimesNewRomanPSMT,Times New Roman" font-size="25.0" fill="#FEFFFF" transform="matrix(1.00, 0.00, -0.00, -1.00, 356.1, 337.9)">B</text><text xml:space="preserve" font-family="TimesNewRomanPSMT,Times New Roman" font-size="25.0" fill="#FEFFFF" transform="matrix(1.00, 0.00, -0.00, -1.00, 372.8, 337.9)">a</text><text xml:space="preserve" font-family="TimesNewRomanPSMT,Times New Roman" font-size="25.0" fill="#FEFFFF" transform="matrix(1.00, 0.00, -0.00, -1.00, 383.9, 337.9)">c</text><text xml:space="preserve" font-family="TimesNewRomanPSMT,Times New Roman" font-size="25.0" fill="#FEFFFF" transform="matrix(1.00, 0.00, -0.00, -1.00, 395.0, 337.9)">k</text><text xml:space="preserve" font-family="TimesNewRomanPSMT,Times New Roman" font-size="25.0" fill="#FEFFFF" transform="matrix(1.00, 0.00, -0.00, -1.00, 407.5, 337.9)">g</text><text xml:space="preserve" font-family="TimesNewRomanPSMT,Times New Roman" font-size="25.0" fill="#FEFFFF" transform="matrix(1.00, 0.00, -0.00, -1.00, 420.0, 337.9)">r</text><text xml:space="preserve" font-family="TimesNewRomanPSMT,Times New Roman" font-size="25.0" fill="#FEFFFF" transform="matrix(1.00, 0.00, -0.00, -1.00, 428.3, 337.9)">o</text><text xml:space="preserve" font-family="TimesNewRomanPSMT,Times New Roman" font-size="25.0" fill="#FEFFFF" transform="matrix(1.00, 0.00, -0.00, -1.00, 440.8, 337.9)">u</text><text xml:space="preserve" font-family="TimesNewRomanPSMT,Times New Roman" font-size="25.0" fill="#FEFFFF" transform="matrix(1.00, 0.00, -0.00, -1.00, 453.3, 337.9)">n</text><text xml:space="preserve" font-family="TimesNewRomanPSMT,Times New Roman" font-size="25.0" fill="#FEFFFF" transform="matrix(1.00, 0.00, -0.00, -1.00, 465.8, 337.9)">d</text><text xml:space="preserve" font-family="TimesNewRomanPSMT,Times New Roman" font-size="25.0" fill="#FEFFFF" transform="matrix(1.00, 0.00, -0.00, -1.00, 478.3, 337.9)"> </text><text xml:space="preserve" font-family="TimesNewRomanPSMT,Times New Roman" font-size="25.0" fill="#FEFFFF" transform="matrix(1.00, 0.00, -0.00, -1.00, 484.5, 337.9)">c</text><text xml:space="preserve" font-family="TimesNewRomanPSMT,Times New Roman" font-size="25.0" fill="#FEFFFF" transform="matrix(1.00, 0.00, -0.00, -1.00, 495.6, 337.9)">o</text><text xml:space="preserve" font-family="TimesNewRomanPSMT,Times New Roman" font-size="25.0" fill="#FEFFFF" transform="matrix(1.00, 0.00, -0.00, -1.00, 508.1, 337.9)">l</text><text xml:space="preserve" font-family="TimesNewRomanPSMT,Times New Roman" font-size="25.0" fill="#FEFFFF" transform="matrix(1.00, 0.00, -0.00, -1.00, 515.1, 337.9)">o</text><text xml:space="preserve" font-family="TimesNewRomanPSMT,Times New Roman" font-size="25.0" fill="#FEFFFF" transform="matrix(1.00, 0.00, -0.00, -1.00, 527.6, 337.9)">r</text><text xml:space="preserve" font-family="TimesNewRomanPSMT,Times New Roman" font-size="25.0" fill="#FEFFFF" transform="matrix(1.00, 0.00, -0.00, -1.00, 687.5, 375.9)">R</text><text xml:space="preserve" font-family="TimesNewRomanPSMT,Times New Roman" font-size="25.0" fill="#FEFFFF" transform="matrix(1.00, 0.00, -0.00, -1.00, 704.2, 375.9)">e</text><text xml:space="preserve" font-family="TimesNewRomanPSMT,Times New Roman" font-size="25.0" fill="#FEFFFF" transform="matrix(1.00, 0.00, -0.00, -1.00, 715.3, 375.9)">n</text><text xml:space="preserve" font-family="TimesNewRomanPSMT,Times New Roman" font-size="25.0" fill="#FEFFFF" transform="matrix(1.00, 0.00, -0.00, -1.00, 727.8, 375.9)">d</text><text xml:space="preserve" font-family="TimesNewRomanPSMT,Times New Roman" font-size="25.0" fill="#FEFFFF" transform="matrix(1.00, 0.00, -0.00, -1.00, 740.3, 375.9)">e</text><text xml:space="preserve" font-family="TimesNewRomanPSMT,Times New Roman" font-size="25.0" fill="#FEFFFF" transform="matrix(1.00, 0.00, -0.00, -1.00, 751.3, 375.9)">r</text><text xml:space="preserve" font-family="TimesNewRomanPSMT,Times New Roman" font-size="25.0" fill="#FEFFFF" transform="matrix(1.00, 0.00, -0.00, -1.00, 759.7, 375.9)"> </text><text xml:space="preserve" font-family="TimesNewRomanPSMT,Times New Roman" font-size="25.0" fill="#FEFFFF" transform="matrix(1.00, 0.00, -0.00, -1.00, 765.5, 375.9)">T</text><text xml:space="preserve" font-family="TimesNewRomanPSMT,Times New Roman" font-size="25.0" fill="#FEFFFF" transform="matrix(1.00, 0.00, -0.00, -1.00, 779.0, 375.9)">a</text><text xml:space="preserve" font-family="TimesNewRomanPSMT,Times New Roman" font-size="25.0" fill="#FEFFFF" transform="matrix(1.00, 0.00, -0.00, -1.00, 790.1, 375.9)">r</text><text xml:space="preserve" font-family="TimesNewRomanPSMT,Times New Roman" font-size="25.0" fill="#FEFFFF" transform="matrix(1.00, 0.00, -0.00, -1.00, 798.0, 375.9)">g</text><text xml:space="preserve" font-family="TimesNewRomanPSMT,Times New Roman" font-size="25.0" fill="#FEFFFF" transform="matrix(1.00, 0.00, -0.00, -1.00, 810.5, 375.9)">e</text><text xml:space="preserve" font-family="TimesNewRomanPSMT,Times New Roman" font-size="25.0" fill="#FEFFFF" transform="matrix(1.00, 0.00, -0.00, -1.00, 821.5, 375.9)">t</text><image xlink:href="../../A6FDE585-8854-41DC-A9F8-470086CBD847/assets/7045AEBB5C8F27B52968F45D8F6FC1A8.png" width="148.00" height="332.00" transform="matrix(0.42, 0.00, -0.00, -0.41, 165.0, 356.0)"></image><text xml:space="preserve" font-family="Helvetica-Light,Helvetica" font-size="18.0" fill="#FEFFFF" transform="matrix(1.00, 0.00, -0.00, -1.00, 501.5, 17.1)">1</text><text xml:space="preserve" font-family="Helvetica-Light,Helvetica" font-size="18.0" fill="#FEFFFF" transform="matrix(1.00, 0.00, -0.00, -1.00, 511.5, 17.1)">4</text></g></svg>