<?xml version="1.0" encoding="UTF-8" standalone="no"?><svg xmlns="http://www.w3.org/2000/svg" xmlns:xlink="http://www.w3.org/1999/xlink" clip-rule="evenodd" stroke-miterlimit="10" viewBox="0 0 1024 768"><desc>SVG generated by Keynote</desc><defs></defs><g transform="matrix(1.00, 0.00, -0.00, -1.00, 0.0, 768.0)"><path d="M 0.0 768.0 L 1024.0 768.0 L 1024.0 0.0 L 0.0 0.0 Z M 0.0 768.0 " fill="#000000"></path><text xml:space="preserve" font-family="TimesNewRomanPSMT,Times New Roman" font-size="80.0" fill="#7ADA45" transform="matrix(1.00, 0.00, -0.00, -1.00, 186.2, 687.7)">I</text><text xml:space="preserve" font-family="TimesNewRomanPSMT,Times New Roman" font-size="80.0" fill="#7ADA45" transform="matrix(1.00, 0.00, -0.00, -1.00, 212.8, 687.7)">t</text><text xml:space="preserve" font-family="TimesNewRomanPSMT,Times New Roman" font-size="80.0" fill="#7ADA45" transform="matrix(1.00, 0.00, -0.00, -1.00, 235.0, 687.7)">e</text><text xml:space="preserve" font-family="TimesNewRomanPSMT,Times New Roman" font-size="80.0" fill="#7ADA45" transform="matrix(1.00, 0.00, -0.00, -1.00, 270.5, 687.7)">r</text><text xml:space="preserve" font-family="TimesNewRomanPSMT,Times New Roman" font-size="80.0" fill="#7ADA45" transform="matrix(1.00, 0.00, -0.00, -1.00, 297.1, 687.7)">a</text><text xml:space="preserve" font-family="TimesNewRomanPSMT,Times New Roman" font-size="80.0" fill="#7ADA45" transform="matrix(1.00, 0.00, -0.00, -1.00, 332.6, 687.7)">t</text><text xml:space="preserve" font-family="TimesNewRomanPSMT,Times New Roman" font-size="80.0" fill="#7ADA45" transform="matrix(1.00, 0.00, -0.00, -1.00, 354.8, 687.7)">i</text><text xml:space="preserve" font-family="TimesNewRomanPSMT,Times New Roman" font-size="80.0" fill="#7ADA45" transform="matrix(1.00, 0.00, -0.00, -1.00, 377.1, 687.7)">o</text><text xml:space="preserve" font-family="TimesNewRomanPSMT,Times New Roman" font-size="80.0" fill="#7ADA45" transform="matrix(1.00, 0.00, -0.00, -1.00, 417.1, 687.7)">n</text><text xml:space="preserve" font-family="TimesNewRomanPSMT,Times New Roman" font-size="80.0" fill="#7ADA45" transform="matrix(1.00, 0.00, -0.00, -1.00, 457.1, 687.7)"> </text><text xml:space="preserve" font-family="TimesNewRomanPSMT,Times New Roman" font-size="80.0" fill="#7ADA45" transform="matrix(1.00, 0.00, -0.00, -1.00, 477.1, 687.7)">M</text><text xml:space="preserve" font-family="TimesNewRomanPSMT,Times New Roman" font-size="80.0" fill="#7ADA45" transform="matrix(1.00, 0.00, -0.00, -1.00, 548.2, 687.7)">e</text><text xml:space="preserve" font-family="TimesNewRomanPSMT,Times New Roman" font-size="80.0" fill="#7ADA45" transform="matrix(1.00, 0.00, -0.00, -1.00, 583.7, 687.7)">r</text><text xml:space="preserve" font-family="TimesNewRomanPSMT,Times New Roman" font-size="80.0" fill="#7ADA45" transform="matrix(1.00, 0.00, -0.00, -1.00, 608.9, 687.7)">g</text><text xml:space="preserve" font-family="TimesNewRomanPSMT,Times New Roman" font-size="80.0" fill="#7ADA45" transform="matrix(1.00, 0.00, -0.00, -1.00, 648.9, 687.7)">e</text><text xml:space="preserve" font-family="TimesNewRomanPSMT,Times New Roman" font-size="80.0" fill="#7ADA45" transform="matrix(1.00, 0.00, -0.00, -1.00, 684.4, 687.7)"> </text><text xml:space="preserve" font-family="TimesNewRomanPSMT,Times New Roman" font-size="80.0" fill="#7ADA45" transform="matrix(1.00, 0.00, -0.00, -1.00, 704.4, 687.7)">S</text><text xml:space="preserve" font-family="TimesNewRomanPSMT,Times New Roman" font-size="80.0" fill="#7ADA45" transform="matrix(1.00, 0.00, -0.00, -1.00, 748.9, 687.7)">o</text><text xml:space="preserve" font-family="TimesNewRomanPSMT,Times New Roman" font-size="80.0" fill="#7ADA45" transform="matrix(1.00, 0.00, -0.00, -1.00, 788.9, 687.7)">r</text><text xml:space="preserve" font-family="TimesNewRomanPSMT,Times New Roman" font-size="80.0" fill="#7ADA45" transform="matrix(1.00, 0.00, -0.00, -1.00, 815.5, 687.7)">t</text><image xlink:href="../../7C7C5FB8-B39A-48EA-8A29-B08E33F37267/assets/0FF37B11A55DB6B2951C3753E5886FBC.png" width="1458.00" height="1424.00" transform="matrix(0.47, 0.00, -0.00, -0.47, 170.0, 668.0)"></image><text xml:space="preserve" font-family="Helvetica-Light,Helvetica" font-size="18.0" fill="#FEFFFF" transform="matrix(1.00, 0.00, -0.00, -1.00, 501.5, 17.1)">1</text><text xml:space="preserve" font-family="Helvetica-Light,Helvetica" font-size="18.0" fill="#FEFFFF" transform="matrix(1.00, 0.00, -0.00, -1.00, 511.5, 17.1)">6</text></g></svg>