<?xml version="1.0" encoding="UTF-8" standalone="no"?><svg xmlns="http://www.w3.org/2000/svg" xmlns:xlink="http://www.w3.org/1999/xlink" clip-rule="evenodd" stroke-miterlimit="10" viewBox="0 0 1024 768"><desc>SVG generated by Keynote</desc><defs></defs><g transform="matrix(1.00, 0.00, -0.00, -1.00, 0.0, 768.0)"><path d="M 0.0 768.0 L 1024.0 768.0 L 1024.0 0.0 L 0.0 0.0 Z M 0.0 768.0 " fill="#000000"></path><text xml:space="preserve" font-family="TimesNewRomanPSMT,Times New Roman" font-size="76.8" fill="#7ADA45" transform="matrix(1.00, 0.00, -0.00, -1.00, 83.0, 665.9)">A</text><text xml:space="preserve" font-family="TimesNewRomanPSMT,Times New Roman" font-size="76.8" fill="#7ADA45" transform="matrix(1.00, 0.00, -0.00, -1.00, 138.4, 665.9)">t</text><text xml:space="preserve" font-family="TimesNewRomanPSMT,Times New Roman" font-size="76.8" fill="#7ADA45" transform="matrix(1.00, 0.00, -0.00, -1.00, 159.8, 665.9)">o</text><text xml:space="preserve" font-family="TimesNewRomanPSMT,Times New Roman" font-size="76.8" fill="#7ADA45" transform="matrix(1.00, 0.00, -0.00, -1.00, 198.2, 665.9)">m</text><text xml:space="preserve" font-family="TimesNewRomanPSMT,Times New Roman" font-size="76.8" fill="#7ADA45" transform="matrix(1.00, 0.00, -0.00, -1.00, 257.9, 665.9)">i</text><text xml:space="preserve" font-family="TimesNewRomanPSMT,Times New Roman" font-size="76.8" fill="#7ADA45" transform="matrix(1.00, 0.00, -0.00, -1.00, 279.2, 665.9)">c</text><text xml:space="preserve" font-family="TimesNewRomanPSMT,Times New Roman" font-size="76.8" fill="#7ADA45" transform="matrix(1.00, 0.00, -0.00, -1.00, 313.3, 665.9)"> </text><text xml:space="preserve" font-family="TimesNewRomanPSMT,Times New Roman" font-size="76.8" fill="#7ADA45" transform="matrix(1.00, 0.00, -0.00, -1.00, 332.5, 665.9)">c</text><text xml:space="preserve" font-family="TimesNewRomanPSMT,Times New Roman" font-size="76.8" fill="#7ADA45" transform="matrix(1.00, 0.00, -0.00, -1.00, 366.6, 665.9)">o</text><text xml:space="preserve" font-family="TimesNewRomanPSMT,Times New Roman" font-size="76.8" fill="#7ADA45" transform="matrix(1.00, 0.00, -0.00, -1.00, 405.0, 665.9)">u</text><text xml:space="preserve" font-family="TimesNewRomanPSMT,Times New Roman" font-size="76.8" fill="#7ADA45" transform="matrix(1.00, 0.00, -0.00, -1.00, 443.4, 665.9)">n</text><text xml:space="preserve" font-family="TimesNewRomanPSMT,Times New Roman" font-size="76.8" fill="#7ADA45" transform="matrix(1.00, 0.00, -0.00, -1.00, 481.8, 665.9)">t</text><text xml:space="preserve" font-family="TimesNewRomanPSMT,Times New Roman" font-size="76.8" fill="#7ADA45" transform="matrix(1.00, 0.00, -0.00, -1.00, 503.1, 665.9)">e</text><text xml:space="preserve" font-family="TimesNewRomanPSMT,Times New Roman" font-size="76.8" fill="#7ADA45" transform="matrix(1.00, 0.00, -0.00, -1.00, 537.1, 665.9)">r</text><text xml:space="preserve" font-family="TimesNewRomanPSMT,Times New Roman" font-size="76.8" fill="#7ADA45" transform="matrix(1.00, 0.00, -0.00, -1.00, 562.7, 665.9)"> </text><text xml:space="preserve" font-family="TimesNewRomanPSMT,Times New Roman" font-size="76.8" fill="#7ADA45" transform="matrix(1.00, 0.00, -0.00, -1.00, 581.9, 665.9)">a</text><text xml:space="preserve" font-family="TimesNewRomanPSMT,Times New Roman" font-size="76.8" fill="#7ADA45" transform="matrix(1.00, 0.00, -0.00, -1.00, 616.0, 665.9)">n</text><text xml:space="preserve" font-family="TimesNewRomanPSMT,Times New Roman" font-size="76.8" fill="#7ADA45" transform="matrix(1.00, 0.00, -0.00, -1.00, 654.4, 665.9)">d</text><text xml:space="preserve" font-family="TimesNewRomanPSMT,Times New Roman" font-size="76.8" fill="#7ADA45" transform="matrix(1.00, 0.00, -0.00, -1.00, 692.8, 665.9)"> </text><text xml:space="preserve" font-family="TimesNewRomanPSMT,Times New Roman" font-size="76.8" fill="#7ADA45" transform="matrix(1.00, 0.00, -0.00, -1.00, 712.0, 665.9)">B</text><text xml:space="preserve" font-family="TimesNewRomanPSMT,Times New Roman" font-size="76.8" fill="#7ADA45" transform="matrix(1.00, 0.00, -0.00, -1.00, 763.3, 665.9)">u</text><text xml:space="preserve" font-family="TimesNewRomanPSMT,Times New Roman" font-size="76.8" fill="#7ADA45" transform="matrix(1.00, 0.00, -0.00, -1.00, 801.7, 665.9)">f</text><text xml:space="preserve" font-family="TimesNewRomanPSMT,Times New Roman" font-size="76.8" fill="#7ADA45" transform="matrix(1.00, 0.00, -0.00, -1.00, 825.9, 665.9)">f</text><text xml:space="preserve" font-family="TimesNewRomanPSMT,Times New Roman" font-size="76.8" fill="#7ADA45" transform="matrix(1.00, 0.00, -0.00, -1.00, 851.5, 665.9)">e</text><text xml:space="preserve" font-family="TimesNewRomanPSMT,Times New Roman" font-size="76.8" fill="#7ADA45" transform="matrix(1.00, 0.00, -0.00, -1.00, 885.6, 665.9)">r</text><text xml:space="preserve" font-family="TimesNewRomanPSMT,Times New Roman" font-size="76.8" fill="#7ADA45" transform="matrix(1.00, 0.00, -0.00, -1.00, 911.1, 665.9)">s</text><image xlink:href="9D8DFB22F43F60F811AC2AE3370E79BA.png" width="1446.00" height="1102.00" transform="matrix(0.57, 0.00, -0.00, -0.57, 102.0, 646.0)"></image><text xml:space="preserve" font-family="Helvetica-Light,Helvetica" font-size="18.0" fill="#FEFFFF" transform="matrix(1.00, 0.00, -0.00, -1.00, 506.5, 17.1)">7</text></g></svg>