<?xml version="1.0" encoding="UTF-8" standalone="no"?><svg xmlns="http://www.w3.org/2000/svg" xmlns:xlink="http://www.w3.org/1999/xlink" clip-rule="evenodd" stroke-miterlimit="10" viewBox="0 0 1024 768"><desc>SVG generated by Keynote</desc><defs></defs><g transform="matrix(1.00, 0.00, -0.00, -1.00, 0.0, 768.0)"><path d="M 0.0 768.0 L 1024.0 768.0 L 1024.0 0.0 L 0.0 0.0 Z M 0.0 768.0 " fill="#000000"></path><text xml:space="preserve" font-family="TimesNewRomanPSMT,Times New Roman" font-size="80.0" fill="#7ADA45" transform="matrix(1.00, 0.00, -0.00, -1.00, 112.6, 636.7)">T</text><text xml:space="preserve" font-family="TimesNewRomanPSMT,Times New Roman" font-size="80.0" fill="#7ADA45" transform="matrix(1.00, 0.00, -0.00, -1.00, 158.7, 636.7)">r</text><text xml:space="preserve" font-family="TimesNewRomanPSMT,Times New Roman" font-size="80.0" fill="#7ADA45" transform="matrix(1.00, 0.00, -0.00, -1.00, 185.3, 636.7)">a</text><text xml:space="preserve" font-family="TimesNewRomanPSMT,Times New Roman" font-size="80.0" fill="#7ADA45" transform="matrix(1.00, 0.00, -0.00, -1.00, 220.8, 636.7)">n</text><text xml:space="preserve" font-family="TimesNewRomanPSMT,Times New Roman" font-size="80.0" fill="#7ADA45" transform="matrix(1.00, 0.00, -0.00, -1.00, 260.8, 636.7)">s</text><text xml:space="preserve" font-family="TimesNewRomanPSMT,Times New Roman" font-size="80.0" fill="#7ADA45" transform="matrix(1.00, 0.00, -0.00, -1.00, 292.0, 636.7)">f</text><text xml:space="preserve" font-family="TimesNewRomanPSMT,Times New Roman" font-size="80.0" fill="#7ADA45" transform="matrix(1.00, 0.00, -0.00, -1.00, 318.6, 636.7)">e</text><text xml:space="preserve" font-family="TimesNewRomanPSMT,Times New Roman" font-size="80.0" fill="#7ADA45" transform="matrix(1.00, 0.00, -0.00, -1.00, 354.1, 636.7)">r</text><text xml:space="preserve" font-family="TimesNewRomanPSMT,Times New Roman" font-size="80.0" fill="#7ADA45" transform="matrix(1.00, 0.00, -0.00, -1.00, 380.7, 636.7)">r</text><text xml:space="preserve" font-family="TimesNewRomanPSMT,Times New Roman" font-size="80.0" fill="#7ADA45" transform="matrix(1.00, 0.00, -0.00, -1.00, 407.4, 636.7)">i</text><text xml:space="preserve" font-family="TimesNewRomanPSMT,Times New Roman" font-size="80.0" fill="#7ADA45" transform="matrix(1.00, 0.00, -0.00, -1.00, 429.6, 636.7)">n</text><text xml:space="preserve" font-family="TimesNewRomanPSMT,Times New Roman" font-size="80.0" fill="#7ADA45" transform="matrix(1.00, 0.00, -0.00, -1.00, 469.6, 636.7)">g</text><text xml:space="preserve" font-family="TimesNewRomanPSMT,Times New Roman" font-size="80.0" fill="#7ADA45" transform="matrix(1.00, 0.00, -0.00, -1.00, 509.6, 636.7)"> </text><text xml:space="preserve" font-family="TimesNewRomanPSMT,Times New Roman" font-size="80.0" fill="#7ADA45" transform="matrix(1.00, 0.00, -0.00, -1.00, 528.1, 636.7)">T</text><text xml:space="preserve" font-family="TimesNewRomanPSMT,Times New Roman" font-size="80.0" fill="#7ADA45" transform="matrix(1.00, 0.00, -0.00, -1.00, 571.4, 636.7)">e</text><text xml:space="preserve" font-family="TimesNewRomanPSMT,Times New Roman" font-size="80.0" fill="#7ADA45" transform="matrix(1.00, 0.00, -0.00, -1.00, 606.9, 636.7)">m</text><text xml:space="preserve" font-family="TimesNewRomanPSMT,Times New Roman" font-size="80.0" fill="#7ADA45" transform="matrix(1.00, 0.00, -0.00, -1.00, 669.1, 636.7)">p</text><text xml:space="preserve" font-family="TimesNewRomanPSMT,Times New Roman" font-size="80.0" fill="#7ADA45" transform="matrix(1.00, 0.00, -0.00, -1.00, 709.1, 636.7)"> </text><text xml:space="preserve" font-family="TimesNewRomanPSMT,Times New Roman" font-size="80.0" fill="#7ADA45" transform="matrix(1.00, 0.00, -0.00, -1.00, 724.7, 636.7)">A</text><text xml:space="preserve" font-family="TimesNewRomanPSMT,Times New Roman" font-size="80.0" fill="#7ADA45" transform="matrix(1.00, 0.00, -0.00, -1.00, 782.5, 636.7)">r</text><text xml:space="preserve" font-family="TimesNewRomanPSMT,Times New Roman" font-size="80.0" fill="#7ADA45" transform="matrix(1.00, 0.00, -0.00, -1.00, 809.1, 636.7)">r</text><text xml:space="preserve" font-family="TimesNewRomanPSMT,Times New Roman" font-size="80.0" fill="#7ADA45" transform="matrix(1.00, 0.00, -0.00, -1.00, 835.8, 636.7)">a</text><text xml:space="preserve" font-family="TimesNewRomanPSMT,Times New Roman" font-size="80.0" fill="#7ADA45" transform="matrix(1.00, 0.00, -0.00, -1.00, 871.3, 636.7)">y</text><image xlink:href="4919394F60FE63ABB87946A5DE7824D3.png" width="1448.00" height="326.00" transform="matrix(0.66, 0.00, -0.00, -0.66, 37.0, 319.0)"></image><text xml:space="preserve" font-family="Times-Roman,Times" font-size="32.0" fill="#FEFFFE" transform="matrix(1.00, 0.00, -0.00, -1.00, 41.0, 493.0)">F</text><text xml:space="preserve" font-family="Times-Roman,Times" font-size="32.0" fill="#FEFFFE" transform="matrix(1.00, 0.00, -0.00, -1.00, 58.8, 493.0)">o</text><text xml:space="preserve" font-family="Times-Roman,Times" font-size="32.0" fill="#FEFFFE" transform="matrix(1.00, 0.00, -0.00, -1.00, 74.8, 493.0)">r</text><text xml:space="preserve" font-family="Times-Roman,Times" font-size="32.0" fill="#FEFFFE" transform="matrix(1.00, 0.00, -0.00, -1.00, 85.4, 493.0)"> </text><text xml:space="preserve" font-family="Times-Roman,Times" font-size="32.0" fill="#FEFFFE" transform="matrix(1.00, 0.00, -0.00, -1.00, 93.4, 493.0)">e</text><text xml:space="preserve" font-family="Times-Roman,Times" font-size="32.0" fill="#FEFFFE" transform="matrix(1.00, 0.00, -0.00, -1.00, 107.6, 493.0)">a</text><text xml:space="preserve" font-family="Times-Roman,Times" font-size="32.0" fill="#FEFFFE" transform="matrix(1.00, 0.00, -0.00, -1.00, 121.8, 493.0)">c</text><text xml:space="preserve" font-family="Times-Roman,Times" font-size="32.0" fill="#FEFFFE" transform="matrix(1.00, 0.00, -0.00, -1.00, 136.0, 493.0)">h</text><text xml:space="preserve" font-family="Times-Roman,Times" font-size="32.0" fill="#FEFFFE" transform="matrix(1.00, 0.00, -0.00, -1.00, 152.0, 493.0)"> </text><text xml:space="preserve" font-family="Times-Roman,Times" font-size="32.0" fill="#FEFFFE" transform="matrix(1.00, 0.00, -0.00, -1.00, 160.0, 493.0)">p</text><text xml:space="preserve" font-family="Times-Roman,Times" font-size="32.0" fill="#FEFFFE" transform="matrix(1.00, 0.00, -0.00, -1.00, 176.0, 493.0)">i</text><text xml:space="preserve" font-family="Times-Roman,Times" font-size="32.0" fill="#FEFFFE" transform="matrix(1.00, 0.00, -0.00, -1.00, 184.9, 493.0)">x</text><text xml:space="preserve" font-family="Times-Roman,Times" font-size="32.0" fill="#FEFFFE" transform="matrix(1.00, 0.00, -0.00, -1.00, 200.9, 493.0)">e</text><text xml:space="preserve" font-family="Times-Roman,Times" font-size="32.0" fill="#FEFFFE" transform="matrix(1.00, 0.00, -0.00, -1.00, 215.1, 493.0)">l</text><text xml:space="preserve" font-family="Times-Roman,Times" font-size="32.0" fill="#FEFFFE" transform="matrix(1.00, 0.00, -0.00, -1.00, 224.0, 493.0)">,</text><text xml:space="preserve" font-family="Times-Roman,Times" font-size="32.0" fill="#FEFFFE" transform="matrix(1.00, 0.00, -0.00, -1.00, 232.0, 493.0)"> </text><text xml:space="preserve" font-family="Times-Roman,Times" font-size="32.0" fill="#FEFFFE" transform="matrix(1.00, 0.00, -0.00, -1.00, 240.0, 493.0)">a</text><text xml:space="preserve" font-family="Times-Roman,Times" font-size="32.0" fill="#FEFFFE" transform="matrix(1.00, 0.00, -0.00, -1.00, 254.2, 493.0)">c</text><text xml:space="preserve" font-family="Times-Roman,Times" font-size="32.0" fill="#FEFFFE" transform="matrix(1.00, 0.00, -0.00, -1.00, 268.4, 493.0)">c</text><text xml:space="preserve" font-family="Times-Roman,Times" font-size="32.0" fill="#FEFFFE" transform="matrix(1.00, 0.00, -0.00, -1.00, 282.6, 493.0)">o</text><text xml:space="preserve" font-family="Times-Roman,Times" font-size="32.0" fill="#FEFFFE" transform="matrix(1.00, 0.00, -0.00, -1.00, 298.6, 493.0)">r</text><text xml:space="preserve" font-family="Times-Roman,Times" font-size="32.0" fill="#FEFFFE" transform="matrix(1.00, 0.00, -0.00, -1.00, 309.2, 493.0)">d</text><text xml:space="preserve" font-family="Times-Roman,Times" font-size="32.0" fill="#FEFFFE" transform="matrix(1.00, 0.00, -0.00, -1.00, 325.2, 493.0)">i</text><text xml:space="preserve" font-family="Times-Roman,Times" font-size="32.0" fill="#FEFFFE" transform="matrix(1.00, 0.00, -0.00, -1.00, 334.1, 493.0)">n</text><text xml:space="preserve" font-family="Times-Roman,Times" font-size="32.0" fill="#FEFFFE" transform="matrix(1.00, 0.00, -0.00, -1.00, 350.1, 493.0)">g</text><text xml:space="preserve" font-family="Times-Roman,Times" font-size="32.0" fill="#FEFFFE" transform="matrix(1.00, 0.00, -0.00, -1.00, 366.1, 493.0)"> </text><text xml:space="preserve" font-family="Times-Roman,Times" font-size="32.0" fill="#FEFFFE" transform="matrix(1.00, 0.00, -0.00, -1.00, 374.1, 493.0)">t</text><text xml:space="preserve" font-family="Times-Roman,Times" font-size="32.0" fill="#FEFFFE" transform="matrix(1.00, 0.00, -0.00, -1.00, 383.0, 493.0)">o</text><text xml:space="preserve" font-family="Times-Roman,Times" font-size="32.0" fill="#FEFFFE" transform="matrix(1.00, 0.00, -0.00, -1.00, 399.0, 493.0)"> </text><text xml:space="preserve" font-family="Times-Roman,Times" font-size="32.0" fill="#FEFFFE" transform="matrix(1.00, 0.00, -0.00, -1.00, 407.0, 493.0)">t</text><text xml:space="preserve" font-family="Times-Roman,Times" font-size="32.0" fill="#FEFFFE" transform="matrix(1.00, 0.00, -0.00, -1.00, 415.9, 493.0)">h</text><text xml:space="preserve" font-family="Times-Roman,Times" font-size="32.0" fill="#FEFFFE" transform="matrix(1.00, 0.00, -0.00, -1.00, 431.9, 493.0)">e</text><text xml:space="preserve" font-family="Times-Roman,Times" font-size="32.0" fill="#FEFFFE" transform="matrix(1.00, 0.00, -0.00, -1.00, 446.1, 493.0)"> </text><text xml:space="preserve" font-family="Times-Roman,Times" font-size="32.0" fill="#FEFFFE" transform="matrix(1.00, 0.00, -0.00, -1.00, 454.1, 493.0)">c</text><text xml:space="preserve" font-family="Times-Roman,Times" font-size="32.0" fill="#FEFFFE" transform="matrix(1.00, 0.00, -0.00, -1.00, 468.3, 493.0)">o</text><text xml:space="preserve" font-family="Times-Roman,Times" font-size="32.0" fill="#FEFFFE" transform="matrix(1.00, 0.00, -0.00, -1.00, 484.3, 493.0)">o</text><text xml:space="preserve" font-family="Times-Roman,Times" font-size="32.0" fill="#FEFFFE" transform="matrix(1.00, 0.00, -0.00, -1.00, 500.3, 493.0)">r</text><text xml:space="preserve" font-family="Times-Roman,Times" font-size="32.0" fill="#FEFFFE" transform="matrix(1.00, 0.00, -0.00, -1.00, 510.9, 493.0)">d</text><text xml:space="preserve" font-family="Times-Roman,Times" font-size="32.0" fill="#FEFFFE" transform="matrix(1.00, 0.00, -0.00, -1.00, 526.9, 493.0)">i</text><text xml:space="preserve" font-family="Times-Roman,Times" font-size="32.0" fill="#FEFFFE" transform="matrix(1.00, 0.00, -0.00, -1.00, 535.8, 493.0)">n</text><text xml:space="preserve" font-family="Times-Roman,Times" font-size="32.0" fill="#FEFFFE" transform="matrix(1.00, 0.00, -0.00, -1.00, 551.8, 493.0)">a</text><text xml:space="preserve" font-family="Times-Roman,Times" font-size="32.0" fill="#FEFFFE" transform="matrix(1.00, 0.00, -0.00, -1.00, 566.0, 493.0)">t</text><text xml:space="preserve" font-family="Times-Roman,Times" font-size="32.0" fill="#FEFFFE" transform="matrix(1.00, 0.00, -0.00, -1.00, 574.9, 493.0)">e</text><text xml:space="preserve" font-family="Times-Roman,Times" font-size="32.0" fill="#FEFFFE" transform="matrix(1.00, 0.00, -0.00, -1.00, 589.1, 493.0)">,</text><text xml:space="preserve" font-family="Times-Roman,Times" font-size="32.0" fill="#FEFFFE" transform="matrix(1.00, 0.00, -0.00, -1.00, 597.1, 493.0)"> </text><text xml:space="preserve" font-family="Times-Roman,Times" font-size="32.0" fill="#FEFFFE" transform="matrix(1.00, 0.00, -0.00, -1.00, 605.1, 493.0)">w</text><text xml:space="preserve" font-family="Times-Roman,Times" font-size="32.0" fill="#FEFFFE" transform="matrix(1.00, 0.00, -0.00, -1.00, 628.2, 493.0)">e</text><text xml:space="preserve" font-family="Times-Roman,Times" font-size="32.0" fill="#FEFFFE" transform="matrix(1.00, 0.00, -0.00, -1.00, 642.4, 493.0)"> </text><text xml:space="preserve" font-family="Times-Roman,Times" font-size="32.0" fill="#FEFFFE" transform="matrix(1.00, 0.00, -0.00, -1.00, 650.4, 493.0)">c</text><text xml:space="preserve" font-family="Times-Roman,Times" font-size="32.0" fill="#FEFFFE" transform="matrix(1.00, 0.00, -0.00, -1.00, 664.6, 493.0)">a</text><text xml:space="preserve" font-family="Times-Roman,Times" font-size="32.0" fill="#FEFFFE" transform="matrix(1.00, 0.00, -0.00, -1.00, 678.8, 493.0)">n</text><text xml:space="preserve" font-family="Times-Roman,Times" font-size="32.0" fill="#FEFFFE" transform="matrix(1.00, 0.00, -0.00, -1.00, 694.8, 493.0)"> </text><text xml:space="preserve" font-family="Times-Roman,Times" font-size="32.0" fill="#FEFFFE" transform="matrix(1.00, 0.00, -0.00, -1.00, 702.8, 493.0)">g</text><text xml:space="preserve" font-family="Times-Roman,Times" font-size="32.0" fill="#FEFFFE" transform="matrix(1.00, 0.00, -0.00, -1.00, 718.8, 493.0)">e</text><text xml:space="preserve" font-family="Times-Roman,Times" font-size="32.0" fill="#FEFFFE" transform="matrix(1.00, 0.00, -0.00, -1.00, 733.0, 493.0)">t</text><text xml:space="preserve" font-family="Times-Roman,Times" font-size="32.0" fill="#FEFFFE" transform="matrix(1.00, 0.00, -0.00, -1.00, 741.9, 493.0)"> </text><text xml:space="preserve" font-family="Times-Roman,Times" font-size="32.0" fill="#FEFFFE" transform="matrix(1.00, 0.00, -0.00, -1.00, 749.9, 493.0)">t</text><text xml:space="preserve" font-family="Times-Roman,Times" font-size="32.0" fill="#FEFFFE" transform="matrix(1.00, 0.00, -0.00, -1.00, 758.8, 493.0)">h</text><text xml:space="preserve" font-family="Times-Roman,Times" font-size="32.0" fill="#FEFFFE" transform="matrix(1.00, 0.00, -0.00, -1.00, 774.8, 493.0)">e</text><text xml:space="preserve" font-family="Times-Roman,Times" font-size="32.0" fill="#FEFFFE" transform="matrix(1.00, 0.00, -0.00, -1.00, 789.0, 493.0)"> </text><text xml:space="preserve" font-family="Times-Roman,Times" font-size="32.0" fill="#FEFFFE" transform="matrix(1.00, 0.00, -0.00, -1.00, 797.0, 493.0)">s</text><text xml:space="preserve" font-family="Times-Roman,Times" font-size="32.0" fill="#FEFFFE" transform="matrix(1.00, 0.00, -0.00, -1.00, 809.4, 493.0)">t</text><text xml:space="preserve" font-family="Times-Roman,Times" font-size="32.0" fill="#FEFFFE" transform="matrix(1.00, 0.00, -0.00, -1.00, 818.3, 493.0)">a</text><text xml:space="preserve" font-family="Times-Roman,Times" font-size="32.0" fill="#FEFFFE" transform="matrix(1.00, 0.00, -0.00, -1.00, 832.5, 493.0)">r</text><text xml:space="preserve" font-family="Times-Roman,Times" font-size="32.0" fill="#FEFFFE" transform="matrix(1.00, 0.00, -0.00, -1.00, 843.2, 493.0)">t</text><text xml:space="preserve" font-family="Times-Roman,Times" font-size="32.0" fill="#FEFFFE" transform="matrix(1.00, 0.00, -0.00, -1.00, 852.1, 493.0)"> </text><text xml:space="preserve" font-family="Times-Roman,Times" font-size="32.0" fill="#FEFFFE" transform="matrix(1.00, 0.00, -0.00, -1.00, 860.1, 493.0)">i</text><text xml:space="preserve" font-family="Times-Roman,Times" font-size="32.0" fill="#FEFFFE" transform="matrix(1.00, 0.00, -0.00, -1.00, 868.9, 493.0)">n</text><text xml:space="preserve" font-family="Times-Roman,Times" font-size="32.0" fill="#FEFFFE" transform="matrix(1.00, 0.00, -0.00, -1.00, 884.9, 493.0)">d</text><text xml:space="preserve" font-family="Times-Roman,Times" font-size="32.0" fill="#FEFFFE" transform="matrix(1.00, 0.00, -0.00, -1.00, 900.9, 493.0)">e</text><text xml:space="preserve" font-family="Times-Roman,Times" font-size="32.0" fill="#FEFFFE" transform="matrix(1.00, 0.00, -0.00, -1.00, 915.1, 493.0)">x</text><text xml:space="preserve" font-family="Times-Roman,Times" font-size="32.0" fill="#FEFFFE" transform="matrix(1.00, 0.00, -0.00, -1.00, 931.1, 493.0)"> </text><text xml:space="preserve" font-family="Times-Roman,Times" font-size="32.0" fill="#FEFFFE" transform="matrix(1.00, 0.00, -0.00, -1.00, 939.1, 493.0)">i</text><text xml:space="preserve" font-family="Times-Roman,Times" font-size="32.0" fill="#FEFFFE" transform="matrix(1.00, 0.00, -0.00, -1.00, 948.0, 493.0)">n</text><text xml:space="preserve" font-family="Times-Roman,Times" font-size="32.0" fill="#FEFFFE" transform="matrix(1.00, 0.00, -0.00, -1.00, 964.0, 493.0)"> </text><text xml:space="preserve" font-family="Times-Roman,Times" font-size="32.0" fill="#FEFFFE" transform="matrix(1.00, 0.00, -0.00, -1.00, 41.0, 455.0)">t</text><text xml:space="preserve" font-family="Times-Roman,Times" font-size="32.0" fill="#FEFFFE" transform="matrix(1.00, 0.00, -0.00, -1.00, 49.9, 455.0)">h</text><text xml:space="preserve" font-family="Times-Roman,Times" font-size="32.0" fill="#FEFFFE" transform="matrix(1.00, 0.00, -0.00, -1.00, 65.9, 455.0)">e</text><text xml:space="preserve" font-family="Times-Roman,Times" font-size="32.0" fill="#FEFFFE" transform="matrix(1.00, 0.00, -0.00, -1.00, 80.1, 455.0)"> </text><text xml:space="preserve" font-family="Times-Roman,Times" font-size="32.0" fill="#FEFFFE" transform="matrix(1.00, 0.00, -0.00, -1.00, 88.1, 455.0)">l</text><text xml:space="preserve" font-family="Times-Roman,Times" font-size="32.0" fill="#FEFFFE" transform="matrix(1.00, 0.00, -0.00, -1.00, 96.9, 455.0)">i</text><text xml:space="preserve" font-family="Times-Roman,Times" font-size="32.0" fill="#FEFFFE" transform="matrix(1.00, 0.00, -0.00, -1.00, 105.8, 455.0)">n</text><text xml:space="preserve" font-family="Times-Roman,Times" font-size="32.0" fill="#FEFFFE" transform="matrix(1.00, 0.00, -0.00, -1.00, 121.8, 455.0)">k</text><text xml:space="preserve" font-family="Times-Roman,Times" font-size="32.0" fill="#FEFFFE" transform="matrix(1.00, 0.00, -0.00, -1.00, 137.8, 455.0)">e</text><text xml:space="preserve" font-family="Times-Roman,Times" font-size="32.0" fill="#FEFFFE" transform="matrix(1.00, 0.00, -0.00, -1.00, 152.0, 455.0)">d</text><text xml:space="preserve" font-family="Times-Roman,Times" font-size="32.0" fill="#FEFFFE" transform="matrix(1.00, 0.00, -0.00, -1.00, 168.0, 455.0)"> </text><text xml:space="preserve" font-family="Times-Roman,Times" font-size="32.0" fill="#FEFFFE" transform="matrix(1.00, 0.00, -0.00, -1.00, 176.0, 455.0)">l</text><text xml:space="preserve" font-family="Times-Roman,Times" font-size="32.0" fill="#FEFFFE" transform="matrix(1.00, 0.00, -0.00, -1.00, 184.9, 455.0)">i</text><text xml:space="preserve" font-family="Times-Roman,Times" font-size="32.0" fill="#FEFFFE" transform="matrix(1.00, 0.00, -0.00, -1.00, 193.8, 455.0)">s</text><text xml:space="preserve" font-family="Times-Roman,Times" font-size="32.0" fill="#FEFFFE" transform="matrix(1.00, 0.00, -0.00, -1.00, 206.3, 455.0)">t</text><text xml:space="preserve" font-family="Times-Roman,Times" font-size="32.0" fill="#FEFFFE" transform="matrix(1.00, 0.00, -0.00, -1.00, 215.1, 455.0)"> </text><text xml:space="preserve" font-family="Times-Roman,Times" font-size="32.0" fill="#FEFFFE" transform="matrix(1.00, 0.00, -0.00, -1.00, 223.1, 455.0)">b</text><text xml:space="preserve" font-family="Times-Roman,Times" font-size="32.0" fill="#FEFFFE" transform="matrix(1.00, 0.00, -0.00, -1.00, 239.1, 455.0)">u</text><text xml:space="preserve" font-family="Times-Roman,Times" font-size="32.0" fill="#FEFFFE" transform="matrix(1.00, 0.00, -0.00, -1.00, 255.1, 455.0)">f</text><text xml:space="preserve" font-family="Times-Roman,Times" font-size="32.0" fill="#FEFFFE" transform="matrix(1.00, 0.00, -0.00, -1.00, 265.2, 455.0)">f</text><text xml:space="preserve" font-family="Times-Roman,Times" font-size="32.0" fill="#FEFFFE" transform="matrix(1.00, 0.00, -0.00, -1.00, 275.9, 455.0)">e</text><text xml:space="preserve" font-family="Times-Roman,Times" font-size="32.0" fill="#FEFFFE" transform="matrix(1.00, 0.00, -0.00, -1.00, 290.1, 455.0)">r</text><text xml:space="preserve" font-family="Times-Roman,Times" font-size="32.0" fill="#FEFFFE" transform="matrix(1.00, 0.00, -0.00, -1.00, 299.0, 455.0)">.</text><text xml:space="preserve" font-family="Times-Roman,Times" font-size="32.0" fill="#FEFFFE" transform="matrix(1.00, 0.00, -0.00, -1.00, 307.0, 455.0)"> </text><text xml:space="preserve" font-family="Times-Roman,Times" font-size="32.0" fill="#FEFFFE" transform="matrix(1.00, 0.00, -0.00, -1.00, 315.0, 455.0)">I</text><text xml:space="preserve" font-family="Times-Roman,Times" font-size="32.0" fill="#FEFFFE" transform="matrix(1.00, 0.00, -0.00, -1.00, 325.6, 455.0)">f</text><text xml:space="preserve" font-family="Times-Roman,Times" font-size="32.0" fill="#FEFFFE" transform="matrix(1.00, 0.00, -0.00, -1.00, 336.3, 455.0)"> </text><text xml:space="preserve" font-family="Times-Roman,Times" font-size="32.0" fill="#FEFFFE" transform="matrix(1.00, 0.00, -0.00, -1.00, 344.3, 455.0)">i</text><text xml:space="preserve" font-family="Times-Roman,Times" font-size="32.0" fill="#FEFFFE" transform="matrix(1.00, 0.00, -0.00, -1.00, 353.2, 455.0)">n</text><text xml:space="preserve" font-family="Times-Roman,Times" font-size="32.0" fill="#FEFFFE" transform="matrix(1.00, 0.00, -0.00, -1.00, 369.2, 455.0)">d</text><text xml:space="preserve" font-family="Times-Roman,Times" font-size="32.0" fill="#FEFFFE" transform="matrix(1.00, 0.00, -0.00, -1.00, 385.2, 455.0)">e</text><text xml:space="preserve" font-family="Times-Roman,Times" font-size="32.0" fill="#FEFFFE" transform="matrix(1.00, 0.00, -0.00, -1.00, 399.4, 455.0)">x</text><text xml:space="preserve" font-family="Times-Roman,Times" font-size="32.0" fill="#FEFFFE" transform="matrix(1.00, 0.00, -0.00, -1.00, 415.4, 455.0)"> </text><text xml:space="preserve" font-family="Times-Roman,Times" font-size="32.0" fill="#FEFFFE" transform="matrix(1.00, 0.00, -0.00, -1.00, 423.4, 455.0)">i</text><text xml:space="preserve" font-family="Times-Roman,Times" font-size="32.0" fill="#FEFFFE" transform="matrix(1.00, 0.00, -0.00, -1.00, 432.3, 455.0)">s</text><text xml:space="preserve" font-family="Times-Roman,Times" font-size="32.0" fill="#FEFFFE" transform="matrix(1.00, 0.00, -0.00, -1.00, 444.7, 455.0)"> </text><text xml:space="preserve" font-family="Times-Roman,Times" font-size="32.0" fill="#FEFFFE" transform="matrix(1.00, 0.00, -0.00, -1.00, 452.7, 455.0)">n</text><text xml:space="preserve" font-family="Times-Roman,Times" font-size="32.0" fill="#FEFFFE" transform="matrix(1.00, 0.00, -0.00, -1.00, 468.7, 455.0)">o</text><text xml:space="preserve" font-family="Times-Roman,Times" font-size="32.0" fill="#FEFFFE" transform="matrix(1.00, 0.00, -0.00, -1.00, 484.7, 455.0)">t</text><text xml:space="preserve" font-family="Times-Roman,Times" font-size="32.0" fill="#FEFFFE" transform="matrix(1.00, 0.00, -0.00, -1.00, 493.6, 455.0)"> </text><text xml:space="preserve" font-family="Times-Roman,Times" font-size="32.0" fill="#FEFFFE" transform="matrix(1.00, 0.00, -0.00, -1.00, 501.6, 455.0)">e</text><text xml:space="preserve" font-family="Times-Roman,Times" font-size="32.0" fill="#FEFFFE" transform="matrix(1.00, 0.00, -0.00, -1.00, 515.8, 455.0)">q</text><text xml:space="preserve" font-family="Times-Roman,Times" font-size="32.0" fill="#FEFFFE" transform="matrix(1.00, 0.00, -0.00, -1.00, 531.8, 455.0)">u</text><text xml:space="preserve" font-family="Times-Roman,Times" font-size="32.0" fill="#FEFFFE" transform="matrix(1.00, 0.00, -0.00, -1.00, 547.8, 455.0)">a</text><text xml:space="preserve" font-family="Times-Roman,Times" font-size="32.0" fill="#FEFFFE" transform="matrix(1.00, 0.00, -0.00, -1.00, 562.0, 455.0)">l</text><text xml:space="preserve" font-family="Times-Roman,Times" font-size="32.0" fill="#FEFFFE" transform="matrix(1.00, 0.00, -0.00, -1.00, 570.9, 455.0)"> </text><text xml:space="preserve" font-family="Times-Roman,Times" font-size="32.0" fill="#FEFFFE" transform="matrix(1.00, 0.00, -0.00, -1.00, 578.9, 455.0)">t</text><text xml:space="preserve" font-family="Times-Roman,Times" font-size="32.0" fill="#FEFFFE" transform="matrix(1.00, 0.00, -0.00, -1.00, 587.8, 455.0)">o</text><text xml:space="preserve" font-family="Times-Roman,Times" font-size="32.0" fill="#FEFFFE" transform="matrix(1.00, 0.00, -0.00, -1.00, 603.8, 455.0)"> </text><text xml:space="preserve" font-family="Times-Roman,Times" font-size="32.0" fill="#FEFFFE" transform="matrix(1.00, 0.00, -0.00, -1.00, 611.8, 455.0)">-</text><text xml:space="preserve" font-family="Times-Roman,Times" font-size="32.0" fill="#FEFFFE" transform="matrix(1.00, 0.00, -0.00, -1.00, 622.4, 455.0)">1</text><text xml:space="preserve" font-family="Times-Roman,Times" font-size="32.0" fill="#FEFFFE" transform="matrix(1.00, 0.00, -0.00, -1.00, 638.4, 455.0)"> </text><text xml:space="preserve" font-family="Times-Roman,Times" font-size="32.0" fill="#FEFFFE" transform="matrix(1.00, 0.00, -0.00, -1.00, 646.4, 455.0)">(</text><text xml:space="preserve" font-family="Times-Roman,Times" font-size="32.0" fill="#FEFFFE" transform="matrix(1.00, 0.00, -0.00, -1.00, 657.1, 455.0)">u</text><text xml:space="preserve" font-family="Times-Roman,Times" font-size="32.0" fill="#FEFFFE" transform="matrix(1.00, 0.00, -0.00, -1.00, 673.1, 455.0)">n</text><text xml:space="preserve" font-family="Times-Roman,Times" font-size="32.0" fill="#FEFFFE" transform="matrix(1.00, 0.00, -0.00, -1.00, 689.1, 455.0)">s</text><text xml:space="preserve" font-family="Times-Roman,Times" font-size="32.0" fill="#FEFFFE" transform="matrix(1.00, 0.00, -0.00, -1.00, 701.5, 455.0)">i</text><text xml:space="preserve" font-family="Times-Roman,Times" font-size="32.0" fill="#FEFFFE" transform="matrix(1.00, 0.00, -0.00, -1.00, 710.4, 455.0)">g</text><text xml:space="preserve" font-family="Times-Roman,Times" font-size="32.0" fill="#FEFFFE" transform="matrix(1.00, 0.00, -0.00, -1.00, 726.4, 455.0)">n</text><text xml:space="preserve" font-family="Times-Roman,Times" font-size="32.0" fill="#FEFFFE" transform="matrix(1.00, 0.00, -0.00, -1.00, 742.4, 455.0)">e</text><text xml:space="preserve" font-family="Times-Roman,Times" font-size="32.0" fill="#FEFFFE" transform="matrix(1.00, 0.00, -0.00, -1.00, 756.6, 455.0)">d</text><text xml:space="preserve" font-family="Times-Roman,Times" font-size="32.0" fill="#FEFFFE" transform="matrix(1.00, 0.00, -0.00, -1.00, 772.6, 455.0)"> </text><text xml:space="preserve" font-family="Times-Roman,Times" font-size="32.0" fill="#FEFFFE" transform="matrix(1.00, 0.00, -0.00, -1.00, 780.6, 455.0)">i</text><text xml:space="preserve" font-family="Times-Roman,Times" font-size="32.0" fill="#FEFFFE" transform="matrix(1.00, 0.00, -0.00, -1.00, 789.5, 455.0)">n</text><text xml:space="preserve" font-family="Times-Roman,Times" font-size="32.0" fill="#FEFFFE" transform="matrix(1.00, 0.00, -0.00, -1.00, 805.5, 455.0)">t</text><text xml:space="preserve" font-family="Times-Roman,Times" font-size="32.0" fill="#FEFFFE" transform="matrix(1.00, 0.00, -0.00, -1.00, 814.4, 455.0)">:</text><text xml:space="preserve" font-family="Times-Roman,Times" font-size="32.0" fill="#FEFFFE" transform="matrix(1.00, 0.00, -0.00, -1.00, 823.3, 455.0)"> </text><text xml:space="preserve" font-family="Times-Roman,Times" font-size="32.0" fill="#2F8B16" transform="matrix(1.00, 0.00, -0.00, -1.00, 831.4, 455.0)">0</text><text xml:space="preserve" font-family="Times-Roman,Times" font-size="32.0" fill="#2F8B16" transform="matrix(1.00, 0.00, -0.00, -1.00, 847.4, 455.0)">x</text><text xml:space="preserve" font-family="Times-Roman,Times" font-size="32.0" fill="#2F8B16" transform="matrix(1.00, 0.00, -0.00, -1.00, 863.4, 455.0)">f</text><text xml:space="preserve" font-family="Times-Roman,Times" font-size="32.0" fill="#2F8B16" transform="matrix(1.00, 0.00, -0.00, -1.00, 873.5, 455.0)">f</text><text xml:space="preserve" font-family="Times-Roman,Times" font-size="32.0" fill="#2F8B16" transform="matrix(1.00, 0.00, -0.00, -1.00, 883.6, 455.0)">f</text><text xml:space="preserve" font-family="Times-Roman,Times" font-size="32.0" fill="#2F8B16" transform="matrix(1.00, 0.00, -0.00, -1.00, 893.7, 455.0)">f</text><text xml:space="preserve" font-family="Times-Roman,Times" font-size="32.0" fill="#2F8B16" transform="matrix(1.00, 0.00, -0.00, -1.00, 903.8, 455.0)">f</text><text xml:space="preserve" font-family="Times-Roman,Times" font-size="32.0" fill="#2F8B16" transform="matrix(1.00, 0.00, -0.00, -1.00, 913.9, 455.0)">f</text><text xml:space="preserve" font-family="Times-Roman,Times" font-size="32.0" fill="#2F8B16" transform="matrix(1.00, 0.00, -0.00, -1.00, 924.0, 455.0)">f</text><text xml:space="preserve" font-family="Times-Roman,Times" font-size="32.0" fill="#2F8B16" transform="matrix(1.00, 0.00, -0.00, -1.00, 934.1, 455.0)">f</text><text xml:space="preserve" font-family="Times-Roman,Times" font-size="32.0" fill="#FEFFFE" transform="matrix(1.00, 0.00, -0.00, -1.00, 944.7, 455.0)">)</text><text xml:space="preserve" font-family="Times-Roman,Times" font-size="32.0" fill="#FEFFFE" transform="matrix(1.00, 0.00, -0.00, -1.00, 955.4, 455.0)">,</text><text xml:space="preserve" font-family="Times-Roman,Times" font-size="32.0" fill="#FEFFFE" transform="matrix(1.00, 0.00, -0.00, -1.00, 963.4, 455.0)"> </text><text xml:space="preserve" font-family="Times-Roman,Times" font-size="32.0" fill="#FEFFFE" transform="matrix(1.00, 0.00, -0.00, -1.00, 41.0, 417.0)">t</text><text xml:space="preserve" font-family="Times-Roman,Times" font-size="32.0" fill="#FEFFFE" transform="matrix(1.00, 0.00, -0.00, -1.00, 49.9, 417.0)">h</text><text xml:space="preserve" font-family="Times-Roman,Times" font-size="32.0" fill="#FEFFFE" transform="matrix(1.00, 0.00, -0.00, -1.00, 65.9, 417.0)">e</text><text xml:space="preserve" font-family="Times-Roman,Times" font-size="32.0" fill="#FEFFFE" transform="matrix(1.00, 0.00, -0.00, -1.00, 80.1, 417.0)"> </text><text xml:space="preserve" font-family="Times-Roman,Times" font-size="32.0" fill="#FEFFFE" transform="matrix(1.00, 0.00, -0.00, -1.00, 88.1, 417.0)">n</text><text xml:space="preserve" font-family="Times-Roman,Times" font-size="32.0" fill="#FEFFFE" transform="matrix(1.00, 0.00, -0.00, -1.00, 104.1, 417.0)">o</text><text xml:space="preserve" font-family="Times-Roman,Times" font-size="32.0" fill="#FEFFFE" transform="matrix(1.00, 0.00, -0.00, -1.00, 120.1, 417.0)">d</text><text xml:space="preserve" font-family="Times-Roman,Times" font-size="32.0" fill="#FEFFFE" transform="matrix(1.00, 0.00, -0.00, -1.00, 136.1, 417.0)">e</text><text xml:space="preserve" font-family="Times-Roman,Times" font-size="32.0" fill="#FEFFFE" transform="matrix(1.00, 0.00, -0.00, -1.00, 150.3, 417.0)">s</text><text xml:space="preserve" font-family="Times-Roman,Times" font-size="32.0" fill="#FEFFFE" transform="matrix(1.00, 0.00, -0.00, -1.00, 162.7, 417.0)"> </text><text xml:space="preserve" font-family="Times-Roman,Times" font-size="32.0" fill="#FEFFFE" transform="matrix(1.00, 0.00, -0.00, -1.00, 170.7, 417.0)">o</text><text xml:space="preserve" font-family="Times-Roman,Times" font-size="32.0" fill="#FEFFFE" transform="matrix(1.00, 0.00, -0.00, -1.00, 186.7, 417.0)">f</text><text xml:space="preserve" font-family="Times-Roman,Times" font-size="32.0" fill="#FEFFFE" transform="matrix(1.00, 0.00, -0.00, -1.00, 197.4, 417.0)"> </text><text xml:space="preserve" font-family="Times-Roman,Times" font-size="32.0" fill="#FEFFFE" transform="matrix(1.00, 0.00, -0.00, -1.00, 205.4, 417.0)">e</text><text xml:space="preserve" font-family="Times-Roman,Times" font-size="32.0" fill="#FEFFFE" transform="matrix(1.00, 0.00, -0.00, -1.00, 219.6, 417.0)">a</text><text xml:space="preserve" font-family="Times-Roman,Times" font-size="32.0" fill="#FEFFFE" transform="matrix(1.00, 0.00, -0.00, -1.00, 233.8, 417.0)">c</text><text xml:space="preserve" font-family="Times-Roman,Times" font-size="32.0" fill="#FEFFFE" transform="matrix(1.00, 0.00, -0.00, -1.00, 248.0, 417.0)">h</text><text xml:space="preserve" font-family="Times-Roman,Times" font-size="32.0" fill="#FEFFFE" transform="matrix(1.00, 0.00, -0.00, -1.00, 264.0, 417.0)"> </text><text xml:space="preserve" font-family="Times-Roman,Times" font-size="32.0" fill="#FEFFFE" transform="matrix(1.00, 0.00, -0.00, -1.00, 272.0, 417.0)">l</text><text xml:space="preserve" font-family="Times-Roman,Times" font-size="32.0" fill="#FEFFFE" transform="matrix(1.00, 0.00, -0.00, -1.00, 280.8, 417.0)">i</text><text xml:space="preserve" font-family="Times-Roman,Times" font-size="32.0" fill="#FEFFFE" transform="matrix(1.00, 0.00, -0.00, -1.00, 289.7, 417.0)">n</text><text xml:space="preserve" font-family="Times-Roman,Times" font-size="32.0" fill="#FEFFFE" transform="matrix(1.00, 0.00, -0.00, -1.00, 305.7, 417.0)">k</text><text xml:space="preserve" font-family="Times-Roman,Times" font-size="32.0" fill="#FEFFFE" transform="matrix(1.00, 0.00, -0.00, -1.00, 321.7, 417.0)">e</text><text xml:space="preserve" font-family="Times-Roman,Times" font-size="32.0" fill="#FEFFFE" transform="matrix(1.00, 0.00, -0.00, -1.00, 335.9, 417.0)">d</text><text xml:space="preserve" font-family="Times-Roman,Times" font-size="32.0" fill="#FEFFFE" transform="matrix(1.00, 0.00, -0.00, -1.00, 351.9, 417.0)"> </text><text xml:space="preserve" font-family="Times-Roman,Times" font-size="32.0" fill="#FEFFFE" transform="matrix(1.00, 0.00, -0.00, -1.00, 359.9, 417.0)">l</text><text xml:space="preserve" font-family="Times-Roman,Times" font-size="32.0" fill="#FEFFFE" transform="matrix(1.00, 0.00, -0.00, -1.00, 368.8, 417.0)">i</text><text xml:space="preserve" font-family="Times-Roman,Times" font-size="32.0" fill="#FEFFFE" transform="matrix(1.00, 0.00, -0.00, -1.00, 377.7, 417.0)">s</text><text xml:space="preserve" font-family="Times-Roman,Times" font-size="32.0" fill="#FEFFFE" transform="matrix(1.00, 0.00, -0.00, -1.00, 390.2, 417.0)">t</text><text xml:space="preserve" font-family="Times-Roman,Times" font-size="32.0" fill="#FEFFFE" transform="matrix(1.00, 0.00, -0.00, -1.00, 399.0, 417.0)"> </text><text xml:space="preserve" font-family="Times-Roman,Times" font-size="32.0" fill="#FEFFFE" transform="matrix(1.00, 0.00, -0.00, -1.00, 407.0, 417.0)">c</text><text xml:space="preserve" font-family="Times-Roman,Times" font-size="32.0" fill="#FEFFFE" transform="matrix(1.00, 0.00, -0.00, -1.00, 421.2, 417.0)">a</text><text xml:space="preserve" font-family="Times-Roman,Times" font-size="32.0" fill="#FEFFFE" transform="matrix(1.00, 0.00, -0.00, -1.00, 435.4, 417.0)">n</text><text xml:space="preserve" font-family="Times-Roman,Times" font-size="32.0" fill="#FEFFFE" transform="matrix(1.00, 0.00, -0.00, -1.00, 451.4, 417.0)"> </text><text xml:space="preserve" font-family="Times-Roman,Times" font-size="32.0" fill="#FEFFFE" transform="matrix(1.00, 0.00, -0.00, -1.00, 459.4, 417.0)">b</text><text xml:space="preserve" font-family="Times-Roman,Times" font-size="32.0" fill="#FEFFFE" transform="matrix(1.00, 0.00, -0.00, -1.00, 475.4, 417.0)">e</text><text xml:space="preserve" font-family="Times-Roman,Times" font-size="32.0" fill="#FEFFFE" transform="matrix(1.00, 0.00, -0.00, -1.00, 489.6, 417.0)"> </text><text xml:space="preserve" font-family="Times-Roman,Times" font-size="32.0" fill="#FEFFFE" transform="matrix(1.00, 0.00, -0.00, -1.00, 497.6, 417.0)">s</text><text xml:space="preserve" font-family="Times-Roman,Times" font-size="32.0" fill="#FEFFFE" transform="matrix(1.00, 0.00, -0.00, -1.00, 510.1, 417.0)">t</text><text xml:space="preserve" font-family="Times-Roman,Times" font-size="32.0" fill="#FEFFFE" transform="matrix(1.00, 0.00, -0.00, -1.00, 519.0, 417.0)">o</text><text xml:space="preserve" font-family="Times-Roman,Times" font-size="32.0" fill="#FEFFFE" transform="matrix(1.00, 0.00, -0.00, -1.00, 535.0, 417.0)">r</text><text xml:space="preserve" font-family="Times-Roman,Times" font-size="32.0" fill="#FEFFFE" transform="matrix(1.00, 0.00, -0.00, -1.00, 545.6, 417.0)">e</text><text xml:space="preserve" font-family="Times-Roman,Times" font-size="32.0" fill="#FEFFFE" transform="matrix(1.00, 0.00, -0.00, -1.00, 559.8, 417.0)">d</text><text xml:space="preserve" font-family="Times-Roman,Times" font-size="32.0" fill="#FEFFFE" transform="matrix(1.00, 0.00, -0.00, -1.00, 575.8, 417.0)"> </text><text xml:space="preserve" font-family="Times-Roman,Times" font-size="32.0" fill="#FEFFFE" transform="matrix(1.00, 0.00, -0.00, -1.00, 583.8, 417.0)">i</text><text xml:space="preserve" font-family="Times-Roman,Times" font-size="32.0" fill="#FEFFFE" transform="matrix(1.00, 0.00, -0.00, -1.00, 592.7, 417.0)">n</text><text xml:space="preserve" font-family="Times-Roman,Times" font-size="32.0" fill="#FEFFFE" transform="matrix(1.00, 0.00, -0.00, -1.00, 608.7, 417.0)">t</text><text xml:space="preserve" font-family="Times-Roman,Times" font-size="32.0" fill="#FEFFFE" transform="matrix(1.00, 0.00, -0.00, -1.00, 617.6, 417.0)">o</text><text xml:space="preserve" font-family="Times-Roman,Times" font-size="32.0" fill="#FEFFFE" transform="matrix(1.00, 0.00, -0.00, -1.00, 633.6, 417.0)"> </text><text xml:space="preserve" font-family="Times-Roman,Times" font-size="32.0" fill="#FEFFFE" transform="matrix(1.00, 0.00, -0.00, -1.00, 641.6, 417.0)">a</text><text xml:space="preserve" font-family="Times-Roman,Times" font-size="32.0" fill="#FEFFFE" transform="matrix(1.00, 0.00, -0.00, -1.00, 655.8, 417.0)">n</text><text xml:space="preserve" font-family="Times-Roman,Times" font-size="32.0" fill="#FEFFFE" transform="matrix(1.00, 0.00, -0.00, -1.00, 671.8, 417.0)"> </text><text xml:space="preserve" font-family="Times-Roman,Times" font-size="32.0" fill="#FEFFFE" transform="matrix(1.00, 0.00, -0.00, -1.00, 679.8, 417.0)">a</text><text xml:space="preserve" font-family="Times-Roman,Times" font-size="32.0" fill="#FEFFFE" transform="matrix(1.00, 0.00, -0.00, -1.00, 694.0, 417.0)">r</text><text xml:space="preserve" font-family="Times-Roman,Times" font-size="32.0" fill="#FEFFFE" transform="matrix(1.00, 0.00, -0.00, -1.00, 704.6, 417.0)">r</text><text xml:space="preserve" font-family="Times-Roman,Times" font-size="32.0" fill="#FEFFFE" transform="matrix(1.00, 0.00, -0.00, -1.00, 715.3, 417.0)">a</text><text xml:space="preserve" font-family="Times-Roman,Times" font-size="32.0" fill="#FEFFFE" transform="matrix(1.00, 0.00, -0.00, -1.00, 729.5, 417.0)">y</text><text xml:space="preserve" font-family="Times-Roman,Times" font-size="32.0" fill="#FEFFFE" transform="matrix(1.00, 0.00, -0.00, -1.00, 743.4, 417.0)">.</text><text xml:space="preserve" font-family="Times-Roman,Times" font-size="32.0" fill="#FEFFFE" transform="matrix(1.00, 0.00, -0.00, -1.00, 751.4, 417.0)"> </text><text xml:space="preserve" font-family="Helvetica-Light,Helvetica" font-size="18.0" fill="#FEFFFF" transform="matrix(1.00, 0.00, -0.00, -1.00, 501.5, 17.1)">1</text><text xml:space="preserve" font-family="Helvetica-Light,Helvetica" font-size="18.0" fill="#FEFFFF" transform="matrix(1.00, 0.00, -0.00, -1.00, 511.5, 17.1)">3</text></g></svg>